<svg width="680" height="430" viewBox="0 0 680 430" fill="none" xmlns="http://www.w3.org/2000/svg">
<rect width="680" height="430" rx="9" fill="url(#paint0_linear_28_141)"/>
<rect width="680" height="87" fill="black"/>
<g filter="url(#filter0_d_28_141)">
<path d="M88.2326 68.144C88.1046 68.08 87.8966 68.032 87.6086 68C87.3526 68 86.8566 68 86.1206 68C85.4166 68 84.3126 68 82.8086 68C82.1366 68 81.8006 67.648 81.8006 66.944V46.688C81.8006 46.528 81.7846 46.368 81.7526 46.208C81.7526 46.048 81.6886 45.904 81.5606 45.776C81.5286 45.712 81.5606 45.616 81.6566 45.488C81.7526 45.36 81.8006 45.232 81.8006 45.104V40.256C81.8006 40.064 81.7366 39.888 81.6086 39.728C81.4806 39.568 81.5446 39.392 81.8006 39.2C81.8326 38.976 81.8326 38.752 81.8006 38.528C81.8006 38.272 81.8006 38.032 81.8006 37.808V35.312C81.8006 35.152 81.8966 34.96 82.0886 34.736C82.2806 34.512 82.4406 34.4 82.5686 34.4C82.6966 34.368 82.8246 34.368 82.9526 34.4C83.1126 34.4 83.2566 34.4 83.3846 34.4H99.8006C99.9286 34.4 100.057 34.384 100.185 34.352C100.345 34.32 100.473 34.336 100.569 34.4C100.729 34.464 100.873 34.576 101.001 34.736C101.161 34.864 101.241 35.008 101.241 35.168C101.241 35.456 101.241 35.744 101.241 36.032C101.273 36.32 101.289 36.64 101.289 36.992V38.672C101.289 38.8 101.209 38.912 101.049 39.008C100.921 39.072 100.921 39.184 101.049 39.344C101.209 39.536 101.289 39.792 101.289 40.112V46.784C101.289 46.976 101.257 47.136 101.193 47.264C101.129 47.392 101.065 47.536 101.001 47.696C100.969 47.76 101.017 47.872 101.145 48.032C101.273 48.192 101.305 48.304 101.241 48.368C101.113 48.592 101.017 48.832 100.953 49.088C100.921 49.312 100.905 49.552 100.905 49.808C100.905 51.728 100.905 53.392 100.905 54.8C100.905 56.176 100.889 57.472 100.857 58.688C100.857 59.904 100.857 61.168 100.857 62.48C100.857 63.76 100.857 65.248 100.857 66.944C100.857 67.072 100.841 67.216 100.809 67.376C100.809 67.504 100.777 67.6 100.713 67.664C100.329 67.984 99.9286 68.144 99.5126 68.144H97.9766C97.7526 68.144 97.5126 68.128 97.2566 68.096C97.0326 68.064 96.8086 67.984 96.5846 67.856C96.3606 68.24 96.1526 68.336 95.9606 68.144C95.8006 67.952 95.5926 67.888 95.3366 67.952C95.2406 67.984 95.0486 68 94.7606 68C94.5046 68.032 93.9766 68.032 93.1766 68C92.4086 68 91.1766 68 89.4806 68C89.2566 68 89.0486 68.064 88.8566 68.192C88.6966 68.32 88.4886 68.304 88.2326 68.144ZM88.5686 66.752C88.6326 66.816 88.7606 66.8 88.9526 66.704C89.1126 66.512 89.2566 66.448 89.3846 66.512C89.5126 66.576 89.6406 66.64 89.7686 66.704C89.8966 66.736 90.0566 66.704 90.2486 66.608C90.4406 66.48 90.5686 66.448 90.6326 66.512C90.8566 66.672 91.0806 66.752 91.3046 66.752C91.5286 66.752 91.7526 66.752 91.9766 66.752L96.8246 66.704C97.2086 66.704 97.5766 66.704 97.9286 66.704C98.3126 66.672 98.6806 66.656 99.0326 66.656C99.1926 66.368 99.2726 66.032 99.2726 65.648V59.072C99.5606 58.88 99.6086 58.688 99.4166 58.496C99.2566 58.304 99.2086 58.096 99.2726 57.872C99.3046 57.808 99.3046 57.744 99.2726 57.68C99.2406 57.584 99.2406 57.52 99.2726 57.488C99.5286 57.232 99.6566 56.88 99.6566 56.432C99.6566 54.608 99.6406 53.264 99.6086 52.4C99.5766 51.536 99.5286 50.96 99.4646 50.672C99.4326 50.352 99.3686 50.128 99.2726 50C99.2086 49.936 99.1926 49.824 99.2246 49.664C99.2886 49.472 99.3526 49.344 99.4166 49.28C99.5766 49.056 99.6246 48.864 99.5606 48.704C99.5286 48.544 99.4326 48.368 99.2726 48.176C99.2406 48.112 99.2406 48.016 99.2726 47.888C99.3366 47.76 99.3846 47.68 99.4166 47.648C99.5446 47.488 99.5446 47.264 99.4166 46.976C99.1286 46.464 99.1286 46.016 99.4166 45.632C99.5446 45.44 99.6086 45.264 99.6086 45.104C99.6406 44.912 99.6566 44.704 99.6566 44.48V36.992C99.6566 36.544 99.6246 36.288 99.5606 36.224C99.4966 36.128 99.2726 36.08 98.8886 36.08H83.9126C83.7526 36.08 83.5766 36.192 83.3846 36.416C83.1926 36.608 83.0806 36.784 83.0486 36.944V51.344C83.3686 51.568 83.4326 51.792 83.2406 52.016C83.0486 52.24 82.9686 52.48 83.0006 52.736C83.0646 52.896 83.0966 53.056 83.0966 53.216C83.0966 53.376 83.1606 53.536 83.2886 53.696C83.4486 53.856 83.4806 54.032 83.3846 54.224C83.1926 54.416 83.0806 54.656 83.0486 54.944C83.0486 55.2 83.0486 55.6 83.0486 56.144C83.0486 56.304 83.0646 56.464 83.0966 56.624C83.1606 56.752 83.2566 56.896 83.3846 57.056C83.4166 57.088 83.4326 57.152 83.4326 57.248C83.4646 57.344 83.4486 57.408 83.3846 57.44C83.2246 57.632 83.1446 57.824 83.1446 58.016C83.1446 58.208 83.1926 58.432 83.2886 58.688C83.6406 59.392 83.6086 60.032 83.1926 60.608C83.0646 60.8 83.0326 60.976 83.0966 61.136C83.2566 61.296 83.3526 61.472 83.3846 61.664C83.4166 61.856 83.4326 62.048 83.4326 62.24V64.496C83.4326 64.752 83.4166 64.992 83.3846 65.216C83.3526 65.408 83.2566 65.6 83.0966 65.792C83.0006 65.888 82.9846 66.016 83.0486 66.176C83.1446 66.304 83.2566 66.368 83.3846 66.368H87.3686C87.5926 66.368 87.8006 66.4 87.9926 66.464C88.2166 66.496 88.4086 66.592 88.5686 66.752ZM91.2566 52.784C90.9366 52.784 90.6166 52.656 90.2966 52.4C90.0086 52.112 89.7366 51.856 89.4806 51.632C89.2246 51.248 89.2246 50.88 89.4806 50.528C89.6726 50.272 89.8646 50.08 90.0566 49.952C90.2806 49.824 90.5526 49.792 90.8726 49.856C91.4806 49.856 91.9446 50 92.2646 50.288C92.6166 50.544 92.7926 50.864 92.7926 51.248C92.7926 51.472 92.6806 51.792 92.4566 52.208C92.2326 52.592 91.8326 52.784 91.2566 52.784ZM91.1126 51.728C91.2726 51.728 91.3686 51.664 91.4006 51.536C91.4326 51.408 91.4486 51.328 91.4486 51.296C91.4486 51.072 91.2886 50.96 90.9686 50.96C90.8726 50.928 90.7606 50.976 90.6326 51.104C90.6006 51.232 90.6006 51.328 90.6326 51.392C90.7606 51.616 90.9206 51.728 91.1126 51.728ZM106.675 68.048C106.035 68.08 105.651 67.952 105.523 67.664C105.427 67.376 105.379 67.072 105.379 66.752V64.64L105.139 36.08C105.139 35.44 105.187 35.008 105.283 34.784C105.379 34.528 105.715 34.4 106.291 34.4C106.387 34.4 106.451 34.56 106.483 34.88C106.547 35.2 106.579 35.552 106.579 35.936C106.611 36.288 106.627 36.512 106.627 36.608C106.627 39.328 106.659 41.376 106.723 42.752C106.787 44.128 106.899 45.072 107.059 45.584C107.219 46.064 107.443 46.32 107.731 46.352L123.475 46.4C123.667 46.432 123.859 46.544 124.051 46.736C124.243 46.896 124.307 47.088 124.243 47.312C124.243 47.696 124.291 48.112 124.387 48.56C124.515 48.976 124.579 49.36 124.579 49.712C124.579 50 124.515 50.224 124.387 50.384C124.611 50.608 124.691 50.816 124.627 51.008C124.563 51.2 124.483 51.392 124.387 51.584C124.515 51.712 124.563 52.144 124.531 52.88C124.531 53.584 124.499 54.352 124.435 55.184C124.403 56.016 124.387 56.688 124.387 57.2C124.387 57.328 124.451 57.632 124.579 58.112C124.707 58.56 124.691 58.864 124.531 59.024C124.307 59.248 124.275 59.6 124.435 60.08C124.595 60.528 124.675 60.832 124.675 60.992C124.675 62.08 124.659 63.104 124.627 64.064C124.627 64.992 124.627 66.016 124.627 67.136C124.627 67.36 124.547 67.568 124.387 67.76C124.227 67.952 124.051 68.048 123.859 68.048C123.667 68.08 123.491 68.08 123.331 68.048C123.203 68.048 123.043 68.048 122.851 68.048L110.899 68C110.707 68 110.515 67.984 110.323 67.952C110.131 67.888 109.971 67.904 109.843 68C109.587 68.192 109.331 68.24 109.075 68.144C108.819 68.048 108.563 68 108.307 68C107.987 68.064 107.683 68.08 107.395 68.048C107.107 68.048 106.867 68.048 106.675 68.048ZM121.363 66.464C121.619 66.464 121.875 66.464 122.131 66.464C122.387 66.432 122.627 66.416 122.851 66.416C123.107 66.416 123.235 66.256 123.235 65.936C123.235 62.8 123.155 60.384 122.995 58.688C122.867 56.96 122.819 55.984 122.851 55.76C122.915 55.504 122.963 55.152 122.995 54.704C123.027 54.256 123.059 53.824 123.091 53.408C123.123 52.992 123.171 52.736 123.235 52.64C123.395 52.416 123.379 52.112 123.187 51.728C123.027 51.344 122.915 51.024 122.851 50.768C122.819 50.64 122.803 50.432 122.803 50.144C122.835 49.824 122.851 49.264 122.851 48.464C122.851 48.24 122.755 48.096 122.563 48.032C122.339 48 122.115 48 121.891 48.032C121.699 48.032 121.507 48.032 121.315 48.032H110.659C110.243 48.032 110.035 48.032 110.035 48.032C110.035 48 109.827 47.984 109.411 47.984C108.323 47.984 107.651 48.144 107.395 48.464C107.171 48.784 107.059 49.232 107.059 49.808C107.059 50.928 107.059 52.224 107.059 53.696C107.059 55.168 107.059 56.656 107.059 58.16C107.059 59.632 107.059 60.992 107.059 62.24C107.059 63.488 107.075 64.496 107.107 65.264C107.139 66 107.171 66.352 107.203 66.32C107.427 66.16 107.795 66.112 108.307 66.176C108.819 66.24 109.187 66.272 109.411 66.272L121.363 66.464ZM114.931 59.024C114.611 59.056 114.339 59.008 114.115 58.88C113.923 58.752 113.731 58.576 113.539 58.352C113.283 57.968 113.283 57.6 113.539 57.248C113.795 56.992 114.067 56.736 114.355 56.48C114.675 56.224 114.995 56.096 115.315 56.096C115.891 56.096 116.291 56.304 116.515 56.72C116.739 57.104 116.851 57.408 116.851 57.632C116.851 58.016 116.675 58.352 116.323 58.64C116.003 58.896 115.539 59.024 114.931 59.024ZM115.027 57.968C115.347 57.968 115.507 57.856 115.507 57.632C115.507 57.568 115.491 57.488 115.459 57.392C115.427 57.264 115.331 57.2 115.171 57.2C114.979 57.2 114.819 57.312 114.691 57.536C114.659 57.568 114.659 57.664 114.691 57.824C114.819 57.952 114.931 58 115.027 57.968ZM129.777 68.48C129.553 68.448 129.345 68.336 129.153 68.144C128.993 67.984 128.897 67.792 128.865 67.568C128.865 67.376 128.865 67.024 128.865 66.512C128.865 66 128.865 65.456 128.865 64.88C128.897 64.272 128.913 63.728 128.913 63.248C128.913 62.736 128.913 62.384 128.913 62.192C128.913 61.936 128.881 61.632 128.817 61.28C128.785 60.896 128.689 60.24 128.529 59.312C128.689 58.672 128.785 57.952 128.817 57.152C128.881 56.32 128.913 55.584 128.913 54.944C128.913 54.72 128.913 54.448 128.913 54.128C128.913 53.808 128.897 53.296 128.865 52.592C128.865 51.888 128.865 50.864 128.865 49.52C128.865 48.848 128.897 48.24 128.961 47.696C129.057 47.152 129.025 46.768 128.865 46.544C128.737 46.32 128.673 46.048 128.673 45.728C128.673 45.376 128.705 45.056 128.769 44.768C128.833 44.48 128.865 44.336 128.865 44.336C128.865 44.176 128.897 44 128.961 43.808C129.025 43.584 128.993 43.408 128.865 43.28C128.673 43.088 128.625 42.8 128.721 42.416C128.817 42 128.865 41.616 128.865 41.264C128.865 41.04 128.913 40.816 129.009 40.592C129.137 40.336 129.089 40.096 128.865 39.872C128.865 39.872 128.897 39.712 128.961 39.392C129.025 39.04 128.993 38.688 128.865 38.336C128.833 38.208 128.833 38.08 128.865 37.952C128.929 37.824 128.929 37.712 128.865 37.616C128.737 37.424 128.705 37.2 128.769 36.944C128.833 36.688 128.865 36.448 128.865 36.224C128.865 35.648 128.929 35.2 129.057 34.88C129.217 34.528 129.585 34.4 130.161 34.496C130.481 34.816 130.641 35.168 130.641 35.552C130.641 35.904 130.593 36.24 130.497 36.56C130.401 36.848 130.353 37.088 130.353 37.28V65.552C130.353 65.776 130.465 65.92 130.689 65.984L136.257 62.288C137.185 61.552 137.889 61.088 138.369 60.896C138.881 60.672 139.217 60.704 139.377 60.992C139.537 61.216 139.537 61.36 139.377 61.424C139.217 61.488 139.137 61.664 139.137 61.952C139.137 62.496 138.945 62.816 138.561 62.912C138.209 62.976 137.873 63.136 137.553 63.392C136.881 63.936 136.129 64.512 135.297 65.12C134.465 65.728 133.649 66.288 132.849 66.8C132.049 67.312 131.361 67.712 130.785 68C130.241 68.32 129.905 68.48 129.777 68.48ZM150.708 68.048C150.196 67.984 149.828 67.952 149.604 67.952C149.412 67.952 149.22 67.952 149.028 67.952H145.812L141.252 68C140.74 68 140.372 67.936 140.148 67.808C139.956 67.68 139.844 67.536 139.812 67.376C139.78 67.184 139.812 67.008 139.908 66.848C140.036 66.656 140.116 66.544 140.148 66.512C140.372 66.448 140.996 66.448 142.02 66.512C143.076 66.576 144.324 66.576 145.764 66.512C145.86 66.512 145.94 66.496 146.004 66.464C146.1 66.432 146.084 66.336 145.956 66.176C145.86 66.016 145.828 65.808 145.86 65.552C145.924 65.264 145.956 65.024 145.956 64.832C145.956 64.608 145.924 64.384 145.86 64.16C145.796 63.936 145.796 63.712 145.86 63.488C145.924 63.264 145.988 63.072 146.052 62.912C146.148 62.72 146.196 62.512 146.196 62.288V49.184C146.196 48.928 146.164 48.672 146.1 48.416C146.036 48.128 145.924 47.968 145.764 47.936C145.412 47.808 144.916 47.744 144.276 47.744C143.764 47.744 143.236 47.776 142.692 47.84C142.148 47.872 141.668 47.888 141.252 47.888C141.124 47.888 140.932 47.888 140.676 47.888C140.42 47.888 140.212 47.856 140.052 47.792C139.924 47.728 139.78 47.616 139.62 47.456C139.492 47.296 139.444 47.184 139.476 47.12C139.636 46.64 139.956 46.4 140.436 46.4H154.116C154.404 46.464 154.548 46.736 154.548 47.216C154.548 47.44 154.292 47.648 153.78 47.84C153.268 48.032 152.74 48.128 152.196 48.128C152.036 48.128 151.876 48.112 151.716 48.08C151.588 48.016 151.46 47.968 151.332 47.936C151.076 48.16 150.804 48.272 150.516 48.272L148.836 47.936C148.452 47.936 148.164 48.096 147.972 48.416C147.78 48.704 147.684 49.04 147.684 49.424V50.24C147.62 50.688 147.556 51.136 147.492 51.584C147.428 52 147.412 52.48 147.444 53.024C147.508 53.28 147.556 53.568 147.588 53.888C147.652 54.176 147.732 54.48 147.828 54.8C147.828 55.184 147.796 55.584 147.732 56C147.668 56.384 147.7 56.816 147.828 57.296C147.892 57.488 147.876 57.696 147.78 57.92C147.716 58.112 147.684 58.208 147.684 58.208C147.556 58.432 147.556 58.64 147.684 58.832C147.812 59.024 147.86 59.248 147.828 59.504C147.796 59.728 147.748 59.968 147.684 60.224C147.652 60.48 147.684 60.672 147.78 60.8C147.94 61.024 147.972 61.28 147.876 61.568C147.78 61.824 147.732 62.24 147.732 62.816C147.732 62.816 147.716 63.2 147.684 63.968C147.652 64.704 147.636 65.488 147.636 66.32C147.636 66.32 147.716 66.352 147.876 66.416C148.036 66.48 148.356 66.512 148.836 66.512H154.116C154.244 66.512 154.356 66.608 154.452 66.8C154.548 66.96 154.58 67.136 154.548 67.328C154.548 67.456 154.372 67.568 154.02 67.664C153.668 67.76 153.252 67.84 152.772 67.904C152.292 67.968 151.844 68 151.428 68C151.044 68.032 150.804 68.048 150.708 68.048ZM147.012 44.864C146.564 44.864 146.148 44.768 145.764 44.576C145.412 44.384 145.188 44.16 145.092 43.904C145.028 43.712 145.028 43.392 145.092 42.944C145.156 42.464 145.412 42.112 145.86 41.888C146.148 41.664 146.452 41.504 146.772 41.408C147.092 41.28 147.364 41.296 147.588 41.456C147.748 41.584 147.94 41.712 148.164 41.84C148.388 41.936 148.596 42.032 148.788 42.128C149.172 42.416 149.268 42.736 149.076 43.088C148.852 43.504 148.596 43.904 148.308 44.288C148.052 44.672 147.62 44.864 147.012 44.864ZM164.316 68.432C163.74 68.432 163.308 68.336 163.02 68.144C162.86 67.984 162.748 67.84 162.684 67.712C162.62 67.552 162.572 67.424 162.54 67.328V47.984C161.644 47.952 160.732 47.984 159.804 48.08C158.908 48.176 158.156 48.224 157.548 48.224C157.132 48.224 156.748 48.128 156.396 47.936C155.916 47.456 155.82 47.088 156.108 46.832C156.396 46.576 156.876 46.448 157.548 46.448H162.54V39.536C162.54 38.8 162.652 38.336 162.876 38.144C163.1 37.952 163.42 37.936 163.836 38.096C163.996 38.128 164.076 38.448 164.076 39.056C164.076 39.376 164.06 39.84 164.028 40.448C163.996 41.056 163.98 42.144 163.98 43.712V46.448H170.028C170.284 46.448 170.508 46.56 170.7 46.784C170.892 47.008 170.988 47.2 170.988 47.36C170.988 47.552 170.796 47.776 170.412 48.032C170.028 48.256 169.676 48.368 169.356 48.368C169.292 48.336 169.212 48.32 169.116 48.32C169.02 48.32 168.94 48.32 168.876 48.32C168.556 48.256 168.076 48.208 167.436 48.176C166.796 48.112 166.156 48.064 165.516 48.032C164.876 48 164.364 47.984 163.98 47.984C164.044 48.112 164.076 48.56 164.076 49.328C164.108 50.096 164.124 51.024 164.124 52.112C164.156 53.168 164.172 54.224 164.172 55.28C164.204 56.336 164.22 57.232 164.22 57.968C164.22 58.704 164.22 59.104 164.22 59.168C164.22 60.736 164.22 62.064 164.22 63.152C164.252 64.24 164.236 65.44 164.172 66.752C164.236 66.752 164.444 66.576 164.796 66.224C165.18 65.872 165.596 65.456 166.044 64.976C166.524 64.496 166.924 64.096 167.244 63.776C167.436 63.552 167.724 63.264 168.108 62.912C168.524 62.56 168.844 62.272 169.068 62.048C169.58 61.44 169.948 60.992 170.172 60.704C170.428 60.384 170.668 60.224 170.892 60.224L170.988 60.704C171.308 60.832 171.436 61.024 171.372 61.28C171.34 61.536 171.244 61.792 171.084 62.048C170.892 62.4 170.668 62.704 170.412 62.96C170.188 63.184 169.884 63.44 169.5 63.728C169.404 63.792 169.292 63.936 169.164 64.16C169.036 64.384 168.908 64.56 168.78 64.688C168.268 65.104 167.724 65.6 167.148 66.176C166.572 66.752 166.028 67.264 165.516 67.712C165.004 68.16 164.604 68.4 164.316 68.432ZM175.251 68C174.771 67.904 174.451 67.776 174.291 67.616C174.163 67.456 174.067 67.2 174.003 66.848C173.939 66.464 173.907 66.08 173.907 65.696V51.488C173.907 51.232 173.907 51.008 173.907 50.816C173.939 50.592 173.955 50.368 173.955 50.144C173.955 49.6 173.907 49.04 173.811 48.464C173.747 47.888 173.779 47.408 173.907 47.024C174.067 46.64 174.451 46.464 175.059 46.496C175.571 46.496 175.939 46.496 176.163 46.496C176.387 46.496 176.643 46.496 176.931 46.496C177.219 46.496 177.731 46.496 178.467 46.496C178.755 46.496 179.043 46.48 179.331 46.448C179.651 46.416 179.955 46.4 180.243 46.4C180.691 46.4 181.379 46.4 182.307 46.4C183.267 46.4 184.275 46.4 185.331 46.4C186.419 46.4 187.379 46.4 188.211 46.4C189.043 46.4 189.571 46.384 189.795 46.352H190.371C191.107 46.352 191.619 46.464 191.907 46.688C192.227 46.912 192.387 47.2 192.387 47.552C192.387 48.192 191.971 48.848 191.139 49.52C190.819 49.744 190.435 50 189.987 50.288C189.539 50.576 189.139 50.896 188.787 51.248C188.211 52.016 187.699 52.528 187.251 52.784C186.835 53.04 186.419 53.456 186.003 54.032C185.491 54.736 184.883 55.312 184.179 55.76C183.475 56.208 182.883 56.752 182.403 57.392C181.955 57.968 181.443 58.384 180.867 58.64C180.291 58.864 179.731 59.296 179.187 59.936C178.963 60.256 178.723 60.56 178.467 60.848C178.243 61.104 177.843 61.456 177.267 61.904C177.011 62.224 176.739 62.464 176.451 62.624C176.163 62.752 175.923 62.912 175.731 63.104C175.571 63.296 175.491 63.616 175.491 64.064C175.491 64.48 175.459 64.944 175.395 65.456C175.363 65.968 175.475 66.224 175.731 66.224C175.827 66.224 176.083 66.224 176.499 66.224C176.915 66.224 177.395 66.224 177.939 66.224C178.483 66.192 178.963 66.176 179.379 66.176C179.827 66.176 180.115 66.176 180.243 66.176C180.499 66.176 180.819 66.176 181.203 66.176C181.619 66.144 181.955 66.208 182.211 66.368C182.371 66.432 182.563 66.464 182.787 66.464C183.011 66.432 183.235 66.416 183.459 66.416C184.003 66.352 184.499 66.336 184.947 66.368C185.427 66.368 185.939 66.384 186.483 66.416C186.643 66.416 187.027 66.416 187.635 66.416C188.243 66.384 188.851 66.352 189.459 66.32C190.067 66.288 190.435 66.24 190.563 66.176C190.691 66.08 190.979 66.112 191.427 66.272C191.875 66.4 192.147 66.544 192.243 66.704C192.339 66.864 192.339 67.12 192.243 67.472C192.147 67.824 191.955 68 191.667 68C191.539 68 191.107 68 190.371 68C189.667 68 188.787 68 187.731 68C186.675 68 185.571 68 184.419 68C183.267 68 182.163 68 181.107 68C180.083 68 179.219 68 178.515 68C177.843 68 177.459 68 177.363 68C176.499 68.096 175.795 68.096 175.251 68ZM175.443 61.28C175.699 60.8 176.051 60.432 176.499 60.176C176.947 59.92 177.395 59.664 177.843 59.408C178.291 59.152 178.627 58.768 178.851 58.256C179.523 57.68 180.131 57.088 180.675 56.48C181.251 55.84 181.939 55.36 182.739 55.04C182.963 54.944 183.187 54.784 183.411 54.56C183.635 54.304 183.859 54.064 184.083 53.84C184.691 53.168 185.411 52.496 186.243 51.824C187.075 51.152 187.683 50.624 188.067 50.24C188.163 50.176 188.339 50.016 188.595 49.76C188.851 49.504 189.107 49.232 189.363 48.944C189.651 48.624 189.827 48.352 189.891 48.128C189.987 47.904 189.907 47.792 189.651 47.792C189.011 47.792 188.115 47.792 186.963 47.792C185.811 47.792 184.659 47.808 183.507 47.84C182.387 47.84 181.491 47.84 180.819 47.84C180.307 47.84 179.779 47.84 179.235 47.84C178.691 47.84 178.147 47.856 177.603 47.888C177.379 47.888 177.075 47.92 176.691 47.984C176.307 48.016 175.971 48.16 175.683 48.416C175.427 48.672 175.299 49.12 175.299 49.76C175.331 50.432 175.363 51.28 175.395 52.304C175.427 53.328 175.459 54.4 175.491 55.52C175.523 56.64 175.539 57.712 175.539 58.736C175.539 59.76 175.507 60.608 175.443 61.28ZM181.443 52.88C181.123 53.2 180.723 53.232 180.243 52.976C179.795 52.72 179.459 52.448 179.235 52.16C179.043 51.904 178.947 51.648 178.947 51.392C178.947 51.136 179.027 50.864 179.187 50.576C179.379 50.256 179.587 50.08 179.811 50.048C180.163 49.984 180.579 49.984 181.059 50.048C181.571 50.08 181.827 50.336 181.827 50.816C181.827 51.168 181.939 51.424 182.163 51.584C182.387 51.744 182.371 51.952 182.115 52.208L181.443 52.88ZM180.819 51.92L181.011 51.728C181.075 51.664 181.075 51.616 181.011 51.584C180.947 51.552 180.915 51.472 180.915 51.344C180.915 51.216 180.851 51.152 180.723 51.152C180.595 51.12 180.483 51.12 180.387 51.152C180.227 51.216 180.147 51.344 180.147 51.536C180.147 51.632 180.179 51.696 180.243 51.728C180.307 51.792 180.387 51.872 180.483 51.968C180.611 52.032 180.723 52.016 180.819 51.92ZM196.479 68.048C196.191 68.048 195.935 67.936 195.711 67.712C195.679 67.616 195.631 67.472 195.567 67.28C195.503 67.088 195.455 66.72 195.423 66.176C195.391 65.6 195.359 64.752 195.327 63.632C195.327 63.472 195.311 63.328 195.279 63.2C195.247 63.04 195.263 62.912 195.327 62.816C195.391 62.72 195.455 62.272 195.519 61.472C195.583 60.672 195.631 59.68 195.663 58.496C195.695 57.28 195.711 56.064 195.711 54.848C195.743 53.6 195.759 52.496 195.759 51.536C195.759 50.896 195.759 50.368 195.759 49.952C195.759 49.504 195.743 49.264 195.711 49.232C195.583 48.656 195.535 48.24 195.567 47.984C195.631 47.728 195.631 47.488 195.567 47.264C195.535 47.2 195.519 47.12 195.519 47.024C195.519 46.64 195.823 46.416 196.431 46.352C197.647 46.288 198.527 46.272 199.071 46.304C199.615 46.336 200.223 46.368 200.895 46.4H202.431C203.167 46.4 203.967 46.448 204.831 46.544C205.727 46.608 206.335 46.56 206.655 46.4C206.719 46.368 206.799 46.352 206.895 46.352C207.215 46.352 207.375 46.528 207.375 46.88C207.407 47.872 207.423 48.72 207.423 49.424C207.423 50.096 207.423 50.768 207.423 51.44C207.423 52.112 207.423 52.816 207.423 53.552C207.423 54.256 207.407 55.12 207.375 56.144C207.279 56.368 207.119 56.48 206.895 56.48C206.479 56.48 206.095 56.272 205.743 55.856C205.615 55.696 205.503 55.52 205.407 55.328C205.343 55.136 205.231 54.976 205.071 54.848C204.911 54.688 204.719 54.56 204.495 54.464C204.271 54.368 204.079 54.24 203.919 54.08C203.119 53.152 202.223 52.352 201.231 51.68C200.239 50.976 199.343 50.176 198.543 49.28C198.479 49.216 198.399 49.152 198.303 49.088C198.239 49.024 198.175 48.944 198.111 48.848C197.887 48.432 197.679 48.224 197.487 48.224C197.295 48.224 197.199 48.352 197.199 48.608L197.007 67.712C196.911 67.936 196.735 68.048 196.479 68.048ZM205.983 53.648C206.143 53.584 206.143 53.36 205.983 52.976C205.855 52.592 205.791 52.256 205.791 51.968C205.823 51.84 205.855 51.712 205.887 51.584C205.919 51.456 205.951 51.344 205.983 51.248C206.143 51.088 206.143 50.8 205.983 50.384C205.951 50.224 205.951 50.048 205.983 49.856C206.047 49.664 206.047 49.488 205.983 49.328C205.951 49.136 205.951 48.912 205.983 48.656C206.047 48.4 206.063 48.224 206.031 48.128C205.999 47.968 205.871 47.904 205.647 47.936C205.455 47.968 205.215 47.984 204.927 47.984C204.287 47.984 203.679 48 203.103 48.032C202.527 48.032 201.919 48.032 201.279 48.032C200.735 48.032 200.303 48.016 199.983 47.984C199.663 47.952 199.471 47.952 199.407 47.984C199.887 48.464 200.479 49.04 201.183 49.712C201.887 50.352 202.591 50.976 203.295 51.584C203.999 52.192 204.607 52.704 205.119 53.12C205.631 53.504 205.919 53.68 205.983 53.648ZM221.58 68.192C220.972 68.192 220.172 68.128 219.18 68C218.188 67.84 217.196 67.744 216.204 67.712C215.212 67.68 214.412 67.808 213.804 68.096C213.548 67.936 213.148 67.856 212.604 67.856C212.092 67.856 211.564 67.888 211.02 67.952C210.508 67.984 210.092 68.016 209.772 68.048H209.148C208.348 68.048 207.772 67.936 207.42 67.712C207.1 67.456 206.94 67.168 206.94 66.848C206.94 66.144 207.404 65.456 208.332 64.784C208.684 64.528 209.02 64.256 209.34 63.968C209.66 63.648 210.012 63.328 210.396 63.008C210.812 62.496 211.292 62.064 211.836 61.712C212.412 61.36 212.956 61.04 213.468 60.752C214.012 60.432 214.428 60.08 214.716 59.696C215.292 58.992 215.964 58.432 216.732 58.016C217.5 57.568 218.188 57.088 218.796 56.576C219.372 56.096 219.932 55.616 220.476 55.136C221.052 54.656 221.628 54.16 222.204 53.648C222.492 53.392 222.844 53.152 223.26 52.928C223.676 52.672 224.204 52.432 224.844 52.208C225.132 51.888 225.452 51.68 225.804 51.584C226.188 51.456 226.508 51.312 226.764 51.152C227.052 50.992 227.196 50.688 227.196 50.24C227.196 49.824 227.084 49.312 226.86 48.704C226.668 48.096 226.268 47.792 225.66 47.792C225.532 47.792 225.132 47.808 224.46 47.84C223.82 47.872 223.164 47.92 222.492 47.984C221.852 48.016 221.436 48.032 221.244 48.032C220.956 48.032 220.652 48.016 220.332 47.984C220.044 47.92 219.756 47.808 219.468 47.648C219.308 47.584 219.1 47.568 218.844 47.6C218.588 47.6 218.332 47.6 218.076 47.6C217.5 47.664 217.116 47.696 216.924 47.696C216.764 47.664 216.38 47.632 215.772 47.6C215.548 47.6 215.324 47.632 215.1 47.696C214.908 47.728 214.684 47.776 214.428 47.84C213.82 47.936 213.404 48 213.18 48.032C212.988 48.064 212.828 48.08 212.7 48.08C212.38 48.08 212.076 48.016 211.788 47.888C211.5 47.728 211.212 47.616 210.924 47.552C210.796 47.52 210.732 47.408 210.732 47.216C210.764 47.024 210.828 46.912 210.924 46.88C211.212 46.816 211.42 46.704 211.548 46.544C211.708 46.384 211.948 46.304 212.268 46.304C212.46 46.304 212.972 46.32 213.804 46.352C214.668 46.352 215.676 46.352 216.828 46.352C218.012 46.352 219.18 46.352 220.332 46.352C221.484 46.352 222.46 46.352 223.26 46.352C224.092 46.352 224.572 46.336 224.7 46.304C225.596 46.144 226.348 46.112 226.956 46.208C227.564 46.272 227.932 46.432 228.06 46.688C228.22 46.816 228.332 47.072 228.396 47.456C228.46 47.84 228.492 48.224 228.492 48.608C228.492 50.368 228.508 51.776 228.54 52.832C228.572 53.888 228.604 54.768 228.636 55.472C228.668 56.176 228.684 56.832 228.684 57.44C228.684 58.048 228.668 58.768 228.636 59.6C228.636 60.4 228.588 61.472 228.492 62.816C228.46 63.04 228.444 63.264 228.444 63.488C228.444 63.712 228.444 63.936 228.444 64.16C228.444 64.48 228.46 64.784 228.492 65.072C228.524 65.328 228.604 65.6 228.732 65.888C228.604 66.432 228.444 66.896 228.252 67.28C228.092 67.664 227.756 67.84 227.244 67.808C226.636 67.776 226.204 67.776 225.948 67.808C225.692 67.84 225.484 67.888 225.324 67.952C225.196 67.984 225.004 68.016 224.748 68.048C224.524 68.08 224.108 68.096 223.5 68.096C223.18 68.096 222.86 68.112 222.54 68.144C222.22 68.176 221.9 68.192 221.58 68.192ZM213.756 66.752C214.044 66.592 214.524 66.48 215.196 66.416C215.868 66.352 216.588 66.336 217.356 66.368C218.156 66.368 218.876 66.384 219.516 66.416C220.188 66.448 220.668 66.464 220.956 66.464C221.532 66.464 222.108 66.464 222.684 66.464C223.292 66.464 223.884 66.448 224.46 66.416C224.716 66.416 225.036 66.4 225.42 66.368C225.836 66.304 226.204 66.144 226.524 65.888C226.844 65.632 226.988 65.184 226.956 64.544C226.924 63.872 226.908 62.992 226.908 61.904C226.908 60.816 226.908 59.664 226.908 58.448C226.94 57.2 226.972 56.032 227.004 54.944C227.068 53.856 227.132 52.976 227.196 52.304C226.908 52.784 226.444 53.152 225.804 53.408C225.164 53.632 224.54 53.872 223.932 54.128C223.324 54.352 222.892 54.72 222.636 55.232C221.9 55.808 221.196 56.448 220.524 57.152C219.884 57.856 219.132 58.368 218.268 58.688C218.044 58.784 217.804 58.96 217.548 59.216C217.292 59.44 217.052 59.664 216.828 59.888C216.38 60.336 215.756 60.832 214.956 61.376C214.188 61.92 213.436 62.432 212.7 62.912C211.964 63.392 211.452 63.76 211.164 64.016C211.068 64.08 210.892 64.256 210.636 64.544C210.412 64.8 210.188 65.088 209.964 65.408C209.74 65.696 209.596 65.952 209.532 66.176C209.5 66.4 209.628 66.512 209.916 66.512C210.14 66.512 210.508 66.496 211.02 66.464C211.532 66.432 212.044 66.432 212.556 66.464C213.1 66.496 213.5 66.592 213.756 66.752ZM220.668 63.248C220.092 63.248 219.692 63.056 219.468 62.672C219.244 62.256 219.132 61.936 219.132 61.712C219.132 61.328 219.292 61.008 219.612 60.752C219.964 60.464 220.444 60.32 221.052 60.32C221.372 60.256 221.628 60.288 221.82 60.416C222.044 60.544 222.252 60.736 222.444 60.992C222.7 61.344 222.7 61.712 222.444 62.096C222.22 62.32 221.948 62.576 221.628 62.864C221.34 63.12 221.02 63.248 220.668 63.248ZM220.812 62.144C221.036 62.144 221.196 62.032 221.292 61.808C221.356 61.744 221.356 61.648 221.292 61.52C221.164 61.392 221.052 61.344 220.956 61.376C220.636 61.376 220.476 61.488 220.476 61.712C220.476 61.744 220.492 61.824 220.524 61.952C220.588 62.08 220.684 62.144 220.812 62.144ZM239.504 68.432C238.928 68.432 238.496 68.336 238.208 68.144C238.048 67.984 237.936 67.84 237.872 67.712C237.808 67.552 237.76 67.424 237.728 67.328V47.984C236.832 47.952 235.92 47.984 234.992 48.08C234.096 48.176 233.344 48.224 232.736 48.224C232.32 48.224 231.936 48.128 231.584 47.936C231.104 47.456 231.008 47.088 231.296 46.832C231.584 46.576 232.064 46.448 232.736 46.448H237.728V39.536C237.728 38.8 237.84 38.336 238.064 38.144C238.288 37.952 238.608 37.936 239.024 38.096C239.184 38.128 239.264 38.448 239.264 39.056C239.264 39.376 239.248 39.84 239.216 40.448C239.184 41.056 239.168 42.144 239.168 43.712V46.448H245.216C245.472 46.448 245.696 46.56 245.888 46.784C246.08 47.008 246.176 47.2 246.176 47.36C246.176 47.552 245.984 47.776 245.6 48.032C245.216 48.256 244.864 48.368 244.544 48.368C244.48 48.336 244.4 48.32 244.304 48.32C244.208 48.32 244.128 48.32 244.064 48.32C243.744 48.256 243.264 48.208 242.624 48.176C241.984 48.112 241.344 48.064 240.704 48.032C240.064 48 239.552 47.984 239.168 47.984C239.232 48.112 239.264 48.56 239.264 49.328C239.296 50.096 239.312 51.024 239.312 52.112C239.344 53.168 239.36 54.224 239.36 55.28C239.392 56.336 239.408 57.232 239.408 57.968C239.408 58.704 239.408 59.104 239.408 59.168C239.408 60.736 239.408 62.064 239.408 63.152C239.44 64.24 239.424 65.44 239.36 66.752C239.424 66.752 239.632 66.576 239.984 66.224C240.368 65.872 240.784 65.456 241.232 64.976C241.712 64.496 242.112 64.096 242.432 63.776C242.624 63.552 242.912 63.264 243.296 62.912C243.712 62.56 244.032 62.272 244.256 62.048C244.768 61.44 245.136 60.992 245.36 60.704C245.616 60.384 245.856 60.224 246.08 60.224L246.176 60.704C246.496 60.832 246.624 61.024 246.56 61.28C246.528 61.536 246.432 61.792 246.272 62.048C246.08 62.4 245.856 62.704 245.6 62.96C245.376 63.184 245.072 63.44 244.688 63.728C244.592 63.792 244.48 63.936 244.352 64.16C244.224 64.384 244.096 64.56 243.968 64.688C243.456 65.104 242.912 65.6 242.336 66.176C241.76 66.752 241.216 67.264 240.704 67.712C240.192 68.16 239.792 68.4 239.504 68.432ZM255.334 68.192C255.174 68.096 254.966 68.048 254.71 68.048C254.486 68.048 254.246 68.048 253.99 68.048C253.862 68.016 253.494 68 252.886 68C252.31 68 251.718 68 251.11 68C250.534 68 250.166 68 250.006 68C249.398 68 249.062 67.664 248.998 66.992V46.448C250.246 46.448 251.622 46.448 253.126 46.448C254.662 46.416 256.23 46.4 257.83 46.4C259.43 46.4 260.95 46.416 262.39 46.448C263.862 46.448 265.142 46.448 266.23 46.448C266.39 46.448 266.534 46.48 266.662 46.544C266.822 46.608 266.902 46.72 266.902 46.88V66.896C266.902 67.024 266.886 67.168 266.854 67.328C266.854 67.456 266.822 67.552 266.758 67.616C266.534 67.744 266.31 67.872 266.086 68C265.894 68.096 265.686 68.144 265.462 68.144C264.918 68.144 264.422 68.176 263.974 68.24C263.526 68.304 263.078 68.176 262.63 67.856C262.406 68.176 262.198 68.24 262.006 68.048C261.814 67.888 261.606 67.84 261.382 67.904C261.286 67.936 261.014 67.968 260.566 68C260.15 68 259.654 68 259.078 68C258.534 68.032 258.022 68.032 257.542 68C257.094 68 256.774 68 256.582 68C256.358 67.968 256.15 68.032 255.958 68.192C255.798 68.352 255.59 68.352 255.334 68.192ZM259.03 66.8C259.286 66.8 259.75 66.784 260.422 66.752C261.094 66.688 261.862 66.64 262.726 66.608C263.622 66.544 264.47 66.512 265.27 66.512C265.334 66.384 265.366 66.048 265.366 65.504C265.366 64.96 265.35 64.4 265.318 63.824C265.286 63.248 265.27 62.896 265.27 62.768V56.672C265.366 55.392 265.43 54.448 265.462 53.84C265.494 53.2 265.494 52.688 265.462 52.304C265.462 51.888 265.446 51.392 265.414 50.816C265.382 50.208 265.366 49.312 265.366 48.128C265.27 48.128 264.982 48.112 264.502 48.08C264.054 48.016 263.654 47.968 263.302 47.936C263.206 47.936 262.806 47.936 262.102 47.936C261.43 47.936 260.646 47.952 259.75 47.984C258.886 48.016 258.102 48.048 257.398 48.08C256.726 48.08 256.326 48.08 256.198 48.08C256.006 47.792 255.814 47.744 255.622 47.936C255.43 48.096 255.158 48.144 254.806 48.08C254.582 47.824 254.358 47.712 254.134 47.744C253.91 47.744 253.67 47.744 253.414 47.744C253.062 47.744 252.566 47.76 251.926 47.792C251.286 47.824 250.79 47.872 250.438 47.936C250.31 48.256 250.23 48.56 250.198 48.848C250.166 49.104 250.246 49.344 250.438 49.568C250.502 49.6 250.55 49.68 250.582 49.808C250.614 49.936 250.598 50.016 250.534 50.048V53.024C250.63 53.184 250.646 53.312 250.582 53.408C250.262 53.728 250.23 54.128 250.486 54.608C250.55 54.736 250.598 54.88 250.63 55.04C250.662 55.2 250.678 55.36 250.678 55.52C250.678 55.872 250.566 56.208 250.342 56.528C250.182 56.752 250.166 56.928 250.294 57.056C250.486 57.312 250.582 57.68 250.582 58.16C250.582 58.512 250.582 59.088 250.582 59.888C250.582 60.656 250.566 61.424 250.534 62.192C250.534 62.96 250.534 63.52 250.534 63.872C250.534 64.096 250.518 64.336 250.486 64.592C250.486 64.848 250.454 65.312 250.39 65.984C250.39 66.368 250.502 66.56 250.726 66.56C251.11 66.56 251.67 66.56 252.406 66.56C253.142 66.56 253.846 66.576 254.518 66.608C255.19 66.608 255.574 66.656 255.67 66.752C255.798 66.848 255.926 66.832 256.054 66.704C256.214 66.544 256.358 66.496 256.486 66.56C256.614 66.624 256.742 66.688 256.87 66.752C256.998 66.784 257.142 66.752 257.302 66.656C257.494 66.528 257.622 66.496 257.686 66.56C257.91 66.72 258.134 66.8 258.358 66.8C258.582 66.8 258.806 66.8 259.03 66.8ZM258.646 58.736C258.326 59.056 257.926 59.088 257.446 58.832C256.998 58.576 256.662 58.304 256.438 58.016C256.246 57.76 256.15 57.504 256.15 57.248C256.15 56.992 256.23 56.72 256.39 56.432C256.582 56.112 256.79 55.936 257.014 55.904C257.366 55.84 257.782 55.84 258.262 55.904C258.774 55.936 259.03 56.192 259.03 56.672C259.03 57.024 259.142 57.28 259.366 57.44C259.59 57.6 259.574 57.808 259.318 58.064L258.646 58.736ZM258.022 57.776L258.214 57.584C258.278 57.52 258.278 57.472 258.214 57.44C258.15 57.408 258.118 57.328 258.118 57.2C258.118 57.072 258.054 57.008 257.926 57.008C257.798 56.976 257.686 56.976 257.59 57.008C257.43 57.072 257.35 57.2 257.35 57.392C257.35 57.488 257.382 57.552 257.446 57.584C257.51 57.648 257.59 57.728 257.686 57.824C257.814 57.888 257.926 57.872 258.022 57.776ZM271.948 68.048C271.66 68.048 271.404 67.936 271.18 67.712C271.148 67.616 271.1 67.472 271.036 67.28C270.972 67.088 270.924 66.72 270.892 66.176C270.86 65.6 270.828 64.752 270.796 63.632C270.796 63.472 270.78 63.328 270.748 63.2C270.716 63.04 270.732 62.912 270.796 62.816C270.86 62.72 270.924 62.272 270.988 61.472C271.052 60.672 271.1 59.68 271.132 58.496C271.164 57.28 271.18 56.064 271.18 54.848C271.212 53.6 271.228 52.496 271.228 51.536C271.228 50.896 271.228 50.368 271.228 49.952C271.228 49.504 271.212 49.264 271.18 49.232C271.052 48.656 271.004 48.24 271.036 47.984C271.1 47.728 271.1 47.488 271.036 47.264C271.004 47.2 270.988 47.12 270.988 47.024C270.988 46.64 271.292 46.416 271.9 46.352C273.116 46.288 273.996 46.272 274.54 46.304C275.084 46.336 275.692 46.368 276.364 46.4H277.9C278.636 46.4 279.436 46.448 280.3 46.544C281.196 46.608 281.804 46.56 282.124 46.4C282.188 46.368 282.268 46.352 282.364 46.352C282.684 46.352 282.844 46.528 282.844 46.88C282.876 47.872 282.892 48.72 282.892 49.424C282.892 50.096 282.892 50.768 282.892 51.44C282.892 52.112 282.892 52.816 282.892 53.552C282.892 54.256 282.876 55.12 282.844 56.144C282.748 56.368 282.588 56.48 282.364 56.48C281.948 56.48 281.564 56.272 281.212 55.856C281.084 55.696 280.972 55.52 280.876 55.328C280.812 55.136 280.7 54.976 280.54 54.848C280.38 54.688 280.188 54.56 279.964 54.464C279.74 54.368 279.548 54.24 279.388 54.08C278.588 53.152 277.692 52.352 276.7 51.68C275.708 50.976 274.812 50.176 274.012 49.28C273.948 49.216 273.868 49.152 273.772 49.088C273.708 49.024 273.644 48.944 273.58 48.848C273.356 48.432 273.148 48.224 272.956 48.224C272.764 48.224 272.668 48.352 272.668 48.608L272.476 67.712C272.38 67.936 272.204 68.048 271.948 68.048ZM281.452 53.648C281.612 53.584 281.612 53.36 281.452 52.976C281.324 52.592 281.26 52.256 281.26 51.968C281.292 51.84 281.324 51.712 281.356 51.584C281.388 51.456 281.42 51.344 281.452 51.248C281.612 51.088 281.612 50.8 281.452 50.384C281.42 50.224 281.42 50.048 281.452 49.856C281.516 49.664 281.516 49.488 281.452 49.328C281.42 49.136 281.42 48.912 281.452 48.656C281.516 48.4 281.532 48.224 281.5 48.128C281.468 47.968 281.34 47.904 281.116 47.936C280.924 47.968 280.684 47.984 280.396 47.984C279.756 47.984 279.148 48 278.572 48.032C277.996 48.032 277.388 48.032 276.748 48.032C276.204 48.032 275.772 48.016 275.452 47.984C275.132 47.952 274.94 47.952 274.876 47.984C275.356 48.464 275.948 49.04 276.652 49.712C277.356 50.352 278.06 50.976 278.764 51.584C279.468 52.192 280.076 52.704 280.588 53.12C281.1 53.504 281.388 53.68 281.452 53.648Z" fill="#91813D"/>
</g>
<path d="M119.921 24.1C119.881 24.06 119.775 24.0333 119.601 24.02C119.441 24.0067 119.281 24 119.121 24C118.975 23.9867 118.875 23.98 118.821 23.98C118.768 23.9667 118.721 23.9333 118.681 23.88C118.641 23.8267 118.641 23.7867 118.681 23.76C118.775 23.6667 118.821 23.5667 118.821 23.46C118.821 23.3533 118.821 23.2133 118.821 23.04C118.821 21.6667 118.821 20.54 118.821 19.66C118.821 18.78 118.821 18.0867 118.821 17.58C118.835 17.0733 118.841 16.7 118.841 16.46C118.841 16.2067 118.841 16.04 118.841 15.96C118.841 15.88 118.841 15.82 118.841 15.78C118.935 15.74 118.968 15.6933 118.941 15.64C118.915 15.5867 118.888 15.5333 118.861 15.48C118.835 15.4267 118.861 15.3867 118.941 15.36C118.955 15.2933 118.961 15.2333 118.961 15.18C118.975 15.1133 118.981 15.0467 118.981 14.98V13.04C118.981 12.9867 118.981 12.9333 118.981 12.88C118.995 12.8267 119.001 12.7733 119.001 12.72C119.001 12.6533 118.988 12.5867 118.961 12.52C118.948 12.44 118.908 12.3733 118.841 12.32C118.828 12.2933 118.821 12.26 118.821 12.22C118.821 12.18 118.821 12.1467 118.821 12.12V10.38C118.821 10.22 118.895 10.1067 119.041 10.04C119.201 9.96 119.335 9.97333 119.441 10.08C119.508 10.1333 119.568 10.1933 119.621 10.26C119.688 10.3267 119.748 10.3933 119.801 10.46C119.868 10.58 119.935 10.7 120.001 10.82C120.068 10.9267 120.155 11.0267 120.261 11.12C120.261 11.2533 120.321 11.36 120.441 11.44C120.561 11.52 120.621 11.6333 120.621 11.78C120.635 11.8733 120.675 11.9733 120.741 12.08C120.808 12.1733 120.868 12.2733 120.921 12.38C121.175 12.8333 121.421 13.2933 121.661 13.76C121.901 14.2267 122.148 14.7 122.401 15.18C122.468 15.2733 122.528 15.3667 122.581 15.46C122.635 15.5533 122.701 15.64 122.781 15.72C122.861 15.8133 122.915 15.92 122.941 16.04C122.981 16.16 123.048 16.2733 123.141 16.38C123.288 16.5267 123.361 16.7267 123.361 16.98C123.535 17.1933 123.675 17.4267 123.781 17.68C123.888 17.9333 124.028 18.1667 124.201 18.38C124.295 18.4733 124.361 18.6067 124.401 18.78C124.441 18.94 124.508 19.0867 124.601 19.22C124.668 19.3 124.741 19.4333 124.821 19.62C124.915 19.7933 125.001 19.9733 125.081 20.16C125.161 20.3467 125.221 20.48 125.261 20.56C125.328 20.6533 125.401 20.7667 125.481 20.9C125.561 21.02 125.628 21.14 125.681 21.26C125.868 21.5933 126.055 21.9333 126.241 22.28C126.441 22.6267 126.628 22.98 126.801 23.34C126.841 23.3933 126.868 23.4533 126.881 23.52C126.895 23.5733 126.901 23.62 126.901 23.66C126.901 23.82 126.795 23.92 126.581 23.96C126.381 23.9867 126.228 24 126.121 24L125.441 23.84C125.308 23.8533 125.181 23.8867 125.061 23.94C124.955 23.98 124.828 24 124.681 24C124.628 24 124.475 24 124.221 24C123.968 23.9867 123.681 23.98 123.361 23.98C123.041 23.98 122.741 23.98 122.461 23.98C122.195 23.98 122.001 23.98 121.881 23.98H120.501C120.421 23.98 120.308 24 120.161 24.04C120.015 24.0933 119.935 24.1133 119.921 24.1ZM121.061 16.58C121.208 16.6067 121.328 16.6067 121.421 16.58C121.528 16.5267 121.688 16.5133 121.901 16.54C122.128 16.5667 122.295 16.5733 122.401 16.56C122.428 16.56 122.455 16.5467 122.481 16.52C122.508 16.48 122.515 16.46 122.501 16.46C122.408 16.3 122.308 16.0933 122.201 15.84C122.108 15.5733 121.988 15.3933 121.841 15.3C121.828 15.2867 121.748 15.1733 121.601 14.96C121.468 14.7467 121.315 14.5 121.141 14.22C120.981 13.9267 120.848 13.68 120.741 13.48C120.648 13.4133 120.608 13.3333 120.621 13.24C120.648 13.1467 120.628 13.0733 120.561 13.02C120.481 12.9533 120.415 12.88 120.361 12.8C120.321 12.7067 120.268 12.62 120.201 12.54C120.148 12.4733 120.101 12.4067 120.061 12.34C120.035 12.2733 120.015 12.1933 120.001 12.1C119.961 11.7667 119.881 11.56 119.761 11.48C119.641 11.3867 119.581 11.2867 119.581 11.18C119.581 11.1533 119.555 11.14 119.501 11.14C119.461 11.14 119.441 11.16 119.441 11.2C119.441 11.24 119.441 11.38 119.441 11.62C119.455 11.8467 119.468 12.1067 119.481 12.4C119.508 12.68 119.535 12.94 119.561 13.18C119.588 13.4067 119.621 13.54 119.661 13.58C119.688 13.6067 119.655 13.7333 119.561 13.96C119.735 14.1867 119.721 14.4267 119.521 14.68C119.508 14.7067 119.488 14.8 119.461 14.96C119.435 15.12 119.435 15.2133 119.461 15.24C119.515 15.2933 119.528 15.3533 119.501 15.42C119.475 15.4867 119.461 15.5533 119.461 15.62C119.461 15.6467 119.461 15.7267 119.461 15.86C119.461 15.9933 119.461 16.1267 119.461 16.26C119.475 16.3933 119.481 16.48 119.481 16.52C119.481 16.52 119.495 16.5267 119.521 16.54C119.548 16.5533 119.568 16.56 119.581 16.56C119.781 16.5067 120.028 16.48 120.321 16.48C120.615 16.48 120.861 16.5133 121.061 16.58ZM122.921 23.48C123.001 23.3733 123.148 23.32 123.361 23.32C123.588 23.32 123.748 23.3733 123.841 23.48C123.895 23.4267 124.001 23.38 124.161 23.34C124.321 23.3 124.481 23.28 124.641 23.28C124.801 23.28 124.908 23.3133 124.961 23.38C124.988 23.4067 125.061 23.4067 125.181 23.38C125.248 23.3667 125.361 23.3533 125.521 23.34C125.681 23.3133 125.788 23.32 125.841 23.36C125.948 23.3467 126.021 23.34 126.061 23.34C126.101 23.34 126.095 23.2733 126.041 23.14C125.908 22.9267 125.775 22.6933 125.641 22.44C125.508 22.1733 125.341 21.9467 125.141 21.76C125.101 21.7067 125.061 21.6533 125.021 21.6C124.995 21.5467 124.975 21.4933 124.961 21.44C124.961 21.3467 124.901 21.1933 124.781 20.98C124.675 20.7533 124.561 20.5267 124.441 20.3C124.321 20.0733 124.241 19.9133 124.201 19.82C124.175 19.7533 124.155 19.68 124.141 19.6C124.128 19.5067 124.075 19.4333 123.981 19.38C123.888 19.3267 123.848 19.2533 123.861 19.16C123.888 19.0667 123.868 18.9933 123.801 18.94C123.668 18.82 123.568 18.68 123.501 18.52C123.448 18.36 123.368 18.2133 123.261 18.08C123.195 17.9867 123.135 17.8867 123.081 17.78C123.041 17.66 123.001 17.5467 122.961 17.44C122.868 17.2533 122.701 17.16 122.461 17.16H120.541C120.475 17.16 120.401 17.16 120.321 17.16C120.241 17.1467 120.168 17.12 120.101 17.08C120.075 17.0533 120.008 17.0533 119.901 17.08C119.795 17.0933 119.695 17.12 119.601 17.16C119.508 17.1867 119.461 17.22 119.461 17.26C119.488 17.2867 119.515 17.32 119.541 17.36C119.568 17.4 119.575 17.4333 119.561 17.46C119.508 17.54 119.468 17.6267 119.441 17.72C119.415 17.8133 119.401 17.9067 119.401 18L119.421 20.4C119.421 20.48 119.415 20.56 119.401 20.64C119.388 20.72 119.381 20.7933 119.381 20.86C119.381 21.0467 119.435 21.1933 119.541 21.3C119.488 21.3533 119.448 21.42 119.421 21.5C119.408 21.5667 119.401 21.6333 119.401 21.7C119.401 21.8467 119.415 22.04 119.441 22.28C119.441 22.3333 119.421 22.3733 119.381 22.4C119.341 22.4133 119.341 22.4533 119.381 22.52C119.448 22.6 119.475 22.6933 119.461 22.8C119.461 22.9067 119.441 23.0133 119.401 23.12C119.321 23.2933 119.415 23.3733 119.681 23.36C119.735 23.3733 119.781 23.38 119.821 23.38C119.875 23.3667 119.928 23.36 119.981 23.36C120.675 23.3867 121.181 23.4 121.501 23.4C121.821 23.3867 122.035 23.3733 122.141 23.36C122.261 23.3333 122.348 23.32 122.401 23.32C122.601 23.32 122.775 23.3733 122.921 23.48ZM122.381 20.76C122.141 20.9333 121.915 21.02 121.701 21.02C121.488 21.0067 121.361 20.9067 121.321 20.72C121.308 20.64 121.268 20.56 121.201 20.48C121.148 20.4 121.121 20.3333 121.121 20.28C121.148 20.1733 121.181 20.08 121.221 20C121.275 19.9067 121.328 19.82 121.381 19.74C121.461 19.66 121.568 19.64 121.701 19.68C121.848 19.7067 121.995 19.76 122.141 19.84C122.288 19.9067 122.388 19.98 122.441 20.06C122.561 20.18 122.595 20.3 122.541 20.42C122.515 20.5667 122.461 20.68 122.381 20.76ZM122.001 20.44C122.028 20.4133 122.041 20.38 122.041 20.34C122.055 20.3 122.048 20.2667 122.021 20.24C122.008 20.2133 121.961 20.1867 121.881 20.16C121.801 20.1333 121.748 20.1333 121.721 20.16C121.708 20.1733 121.695 20.1933 121.681 20.22C121.668 20.2467 121.661 20.2733 121.661 20.3C121.661 20.3133 121.668 20.3333 121.681 20.36C121.695 20.3733 121.708 20.3933 121.721 20.42C121.735 20.4733 121.768 20.5 121.821 20.5C121.888 20.5 121.948 20.48 122.001 20.44ZM128.224 24.2C128.131 24.1867 128.044 24.14 127.964 24.06C127.898 23.9933 127.858 23.9133 127.844 23.82C127.844 23.74 127.844 23.5933 127.844 23.38C127.844 23.1667 127.844 22.94 127.844 22.7C127.858 22.4467 127.864 22.22 127.864 22.02C127.864 21.8067 127.864 21.66 127.864 21.58C127.864 21.4733 127.851 21.3467 127.824 21.2C127.811 21.04 127.771 20.7667 127.704 20.38C127.771 20.1133 127.811 19.8133 127.824 19.48C127.851 19.1333 127.864 18.8267 127.864 18.56C127.864 18.4667 127.864 18.3533 127.864 18.22C127.864 18.0867 127.858 17.8733 127.844 17.58C127.844 17.2867 127.844 16.86 127.844 16.3C127.844 16.02 127.858 15.7667 127.884 15.54C127.924 15.3133 127.911 15.1533 127.844 15.06C127.791 14.9667 127.764 14.8533 127.764 14.72C127.764 14.5733 127.778 14.44 127.804 14.32C127.831 14.2 127.844 14.14 127.844 14.14C127.844 14.0733 127.858 14 127.884 13.92C127.911 13.8267 127.898 13.7533 127.844 13.7C127.764 13.62 127.744 13.5 127.784 13.34C127.824 13.1667 127.844 13.0067 127.844 12.86C127.844 12.7667 127.864 12.6733 127.904 12.58C127.958 12.4733 127.938 12.3733 127.844 12.28C127.844 12.28 127.858 12.2133 127.884 12.08C127.911 11.9333 127.898 11.7867 127.844 11.64C127.831 11.5867 127.831 11.5333 127.844 11.48C127.871 11.4267 127.871 11.38 127.844 11.34C127.791 11.26 127.778 11.1667 127.804 11.06C127.831 10.9533 127.844 10.8533 127.844 10.76C127.844 10.52 127.871 10.3333 127.924 10.2C127.991 10.0533 128.144 10 128.384 10.04C128.518 10.1733 128.584 10.32 128.584 10.48C128.584 10.6267 128.564 10.7667 128.524 10.9C128.484 11.02 128.464 11.12 128.464 11.2V22.98C128.464 23.0733 128.511 23.1333 128.604 23.16L130.924 21.62C131.311 21.3133 131.604 21.12 131.804 21.04C132.018 20.9467 132.158 20.96 132.224 21.08C132.291 21.1733 132.291 21.2333 132.224 21.26C132.158 21.2867 132.124 21.36 132.124 21.48C132.124 21.7067 132.044 21.84 131.884 21.88C131.738 21.9067 131.598 21.9733 131.464 22.08C131.184 22.3067 130.871 22.5467 130.524 22.8C130.178 23.0533 129.838 23.2867 129.504 23.5C129.171 23.7133 128.884 23.88 128.644 24C128.418 24.1333 128.278 24.2 128.224 24.2ZM134.046 24C133.846 23.96 133.713 23.9067 133.646 23.84C133.593 23.7733 133.553 23.6667 133.526 23.52C133.5 23.36 133.486 23.2 133.486 23.04V17.12C133.486 17.0133 133.486 16.92 133.486 16.84C133.5 16.7467 133.506 16.6533 133.506 16.56C133.506 16.3333 133.486 16.1 133.446 15.86C133.42 15.62 133.433 15.42 133.486 15.26C133.553 15.1 133.713 15.0267 133.966 15.04C134.18 15.04 134.333 15.04 134.426 15.04C134.52 15.04 134.626 15.04 134.746 15.04C134.866 15.04 135.08 15.04 135.386 15.04C135.506 15.04 135.626 15.0333 135.746 15.02C135.88 15.0067 136.006 15 136.126 15C136.313 15 136.6 15 136.986 15C137.386 15 137.806 15 138.246 15C138.7 15 139.1 15 139.446 15C139.793 15 140.013 14.9933 140.106 14.98H140.346C140.653 14.98 140.866 15.0267 140.986 15.12C141.12 15.2133 141.186 15.3333 141.186 15.48C141.186 15.7467 141.013 16.02 140.666 16.3C140.533 16.3933 140.373 16.5 140.186 16.62C140 16.74 139.833 16.8733 139.686 17.02C139.446 17.34 139.233 17.5533 139.046 17.66C138.873 17.7667 138.7 17.94 138.526 18.18C138.313 18.4733 138.06 18.7133 137.766 18.9C137.473 19.0867 137.226 19.3133 137.026 19.58C136.84 19.82 136.626 19.9933 136.386 20.1C136.146 20.1933 135.913 20.3733 135.686 20.64C135.593 20.7733 135.493 20.9 135.386 21.02C135.293 21.1267 135.126 21.2733 134.886 21.46C134.78 21.5933 134.666 21.6933 134.546 21.76C134.426 21.8133 134.326 21.88 134.246 21.96C134.18 22.04 134.146 22.1733 134.146 22.36C134.146 22.5333 134.133 22.7267 134.106 22.94C134.093 23.1533 134.14 23.26 134.246 23.26C134.286 23.26 134.393 23.26 134.566 23.26C134.74 23.26 134.94 23.26 135.166 23.26C135.393 23.2467 135.593 23.24 135.766 23.24C135.953 23.24 136.073 23.24 136.126 23.24C136.233 23.24 136.366 23.24 136.526 23.24C136.7 23.2267 136.84 23.2533 136.946 23.32C137.013 23.3467 137.093 23.36 137.186 23.36C137.28 23.3467 137.373 23.34 137.466 23.34C137.693 23.3133 137.9 23.3067 138.086 23.32C138.286 23.32 138.5 23.3267 138.726 23.34C138.793 23.34 138.953 23.34 139.206 23.34C139.46 23.3267 139.713 23.3133 139.966 23.3C140.22 23.2867 140.373 23.2667 140.426 23.24C140.48 23.2 140.6 23.2133 140.786 23.28C140.973 23.3333 141.086 23.3933 141.126 23.46C141.166 23.5267 141.166 23.6333 141.126 23.78C141.086 23.9267 141.006 24 140.886 24C140.833 24 140.653 24 140.346 24C140.053 24 139.686 24 139.246 24C138.806 24 138.346 24 137.866 24C137.386 24 136.926 24 136.486 24C136.06 24 135.7 24 135.406 24C135.126 24 134.966 24 134.926 24C134.566 24.04 134.273 24.04 134.046 24ZM134.126 21.2C134.233 21 134.38 20.8467 134.566 20.74C134.753 20.6333 134.94 20.5267 135.126 20.42C135.313 20.3133 135.453 20.1533 135.546 19.94C135.826 19.7 136.08 19.4533 136.306 19.2C136.546 18.9333 136.833 18.7333 137.166 18.6C137.26 18.56 137.353 18.4933 137.446 18.4C137.54 18.2933 137.633 18.1933 137.726 18.1C137.98 17.82 138.28 17.54 138.626 17.26C138.973 16.98 139.226 16.76 139.386 16.6C139.426 16.5733 139.5 16.5067 139.606 16.4C139.713 16.2933 139.82 16.18 139.926 16.06C140.046 15.9267 140.12 15.8133 140.146 15.72C140.186 15.6267 140.153 15.58 140.046 15.58C139.78 15.58 139.406 15.58 138.926 15.58C138.446 15.58 137.966 15.5867 137.486 15.6C137.02 15.6 136.646 15.6 136.366 15.6C136.153 15.6 135.933 15.6 135.706 15.6C135.48 15.6 135.253 15.6067 135.026 15.62C134.933 15.62 134.806 15.6333 134.646 15.66C134.486 15.6733 134.346 15.7333 134.226 15.84C134.12 15.9467 134.066 16.1333 134.066 16.4C134.08 16.68 134.093 17.0333 134.106 17.46C134.12 17.8867 134.133 18.3333 134.146 18.8C134.16 19.2667 134.166 19.7133 134.166 20.14C134.166 20.5667 134.153 20.92 134.126 21.2ZM136.626 17.7C136.493 17.8333 136.326 17.8467 136.126 17.74C135.94 17.6333 135.8 17.52 135.706 17.4C135.626 17.2933 135.586 17.1867 135.586 17.08C135.586 16.9733 135.62 16.86 135.686 16.74C135.766 16.6067 135.853 16.5333 135.946 16.52C136.093 16.4933 136.266 16.4933 136.466 16.52C136.68 16.5333 136.786 16.64 136.786 16.84C136.786 16.9867 136.833 17.0933 136.926 17.16C137.02 17.2267 137.013 17.3133 136.906 17.42L136.626 17.7ZM136.366 17.3L136.446 17.22C136.473 17.1933 136.473 17.1733 136.446 17.16C136.42 17.1467 136.406 17.1133 136.406 17.06C136.406 17.0067 136.38 16.98 136.326 16.98C136.273 16.9667 136.226 16.9667 136.186 16.98C136.12 17.0067 136.086 17.06 136.086 17.14C136.086 17.18 136.1 17.2067 136.126 17.22C136.153 17.2467 136.186 17.28 136.226 17.32C136.28 17.3467 136.326 17.34 136.366 17.3ZM149.752 24C149.592 24 149.298 24 148.872 24C148.445 24 147.938 24 147.352 24C146.778 24 146.185 24 145.572 24C144.958 24 144.385 24 143.852 24C143.318 24 142.878 24 142.532 24C142.185 23.9867 141.998 23.98 141.972 23.98C141.865 23.9533 141.812 23.8933 141.812 23.8C141.812 23.6933 141.872 23.5533 141.992 23.38C142.112 23.2067 142.258 23.0267 142.432 22.84C142.605 22.6533 142.758 22.4867 142.892 22.34C143.038 22.1933 143.132 22.1 143.172 22.06C143.318 21.9133 143.472 21.7667 143.632 21.62C143.792 21.46 143.938 21.3067 144.072 21.16C144.338 20.88 144.618 20.6067 144.912 20.34C145.218 20.06 145.492 19.76 145.732 19.44C145.452 19.16 145.172 18.88 144.892 18.6C144.625 18.32 144.352 18.0533 144.072 17.8C143.992 17.7067 143.912 17.62 143.832 17.54C143.752 17.4467 143.645 17.3867 143.512 17.36C143.485 17.36 143.458 17.3467 143.432 17.32C143.418 17.2933 143.398 17.2733 143.372 17.26C143.212 16.9533 143.005 16.6867 142.752 16.46C142.498 16.22 142.252 15.98 142.012 15.74C141.865 15.5933 141.792 15.4667 141.792 15.36C141.792 15.2133 141.912 15.12 142.152 15.08C142.405 15.0267 142.692 15 143.012 15C143.212 15 143.518 15 143.932 15C144.358 15 144.825 15.0067 145.332 15.02C145.838 15.02 146.332 15.0267 146.812 15.04C147.305 15.04 147.725 15.04 148.072 15.04C148.418 15.04 148.638 15.04 148.732 15.04C148.825 15.0267 148.912 15.02 148.992 15.02C149.072 15.02 149.145 15.02 149.212 15.02C149.852 15.02 150.278 15.1067 150.492 15.28C150.492 15.3733 150.485 15.4467 150.472 15.5C150.458 15.5533 150.418 15.5933 150.352 15.62C149.978 15.9933 149.732 16.2733 149.612 16.46C149.505 16.6333 149.378 16.7533 149.232 16.82C149.098 16.8733 149.005 16.9733 148.952 17.12C148.898 17.2667 148.812 17.3867 148.692 17.48C148.572 17.5733 148.458 17.68 148.352 17.8C148.258 17.9067 148.158 18.0133 148.052 18.12L147.412 18.76C147.305 18.8667 147.198 18.9733 147.092 19.08C146.985 19.1867 146.878 19.2933 146.772 19.4C146.638 19.5067 146.665 19.6133 146.852 19.72C146.878 19.76 146.945 19.8533 147.052 20C147.158 20.1333 147.238 20.2133 147.292 20.24C147.758 20.4533 148.112 20.7933 148.352 21.26C148.365 21.2867 148.425 21.38 148.532 21.54C148.652 21.6867 148.778 21.7533 148.912 21.74C148.965 21.8067 149.085 21.9267 149.272 22.1C149.472 22.2733 149.598 22.4267 149.652 22.56C149.678 22.64 149.758 22.74 149.892 22.86C150.025 22.9667 150.165 23.0733 150.312 23.18C150.458 23.2867 150.552 23.3867 150.592 23.48C150.605 23.6933 150.532 23.8333 150.372 23.9C150.212 23.9667 150.005 24 149.752 24ZM146.112 18.9C146.178 18.9533 146.225 18.9733 146.252 18.96C146.292 18.9467 146.338 18.92 146.392 18.88C146.538 18.72 146.698 18.56 146.872 18.4C147.045 18.24 147.198 18.0733 147.332 17.9C147.478 17.7267 147.638 17.5867 147.812 17.48C147.998 17.3733 148.152 17.22 148.272 17.02C148.392 16.8333 148.538 16.6733 148.712 16.54C148.898 16.3933 149.038 16.22 149.132 16.02C149.158 15.9667 149.205 15.9067 149.272 15.84C149.338 15.7733 149.385 15.7067 149.412 15.64C149.172 15.68 148.918 15.7 148.652 15.7C148.412 15.7 148.172 15.68 147.932 15.64C147.478 15.5333 146.885 15.5133 146.152 15.58C145.432 15.6333 144.592 15.6467 143.632 15.62C143.538 15.62 143.432 15.62 143.312 15.62C143.205 15.6067 143.038 15.5933 142.812 15.58C142.678 15.5667 142.632 15.58 142.672 15.62C142.725 15.66 142.778 15.7133 142.832 15.78C142.898 15.8333 142.978 15.88 143.072 15.92C143.165 15.9467 143.225 16.02 143.252 16.14C143.278 16.2467 143.325 16.3333 143.392 16.4C143.472 16.4533 143.565 16.5 143.672 16.54C143.752 16.5533 143.798 16.6067 143.812 16.7C143.838 16.7933 143.905 16.86 144.012 16.9C144.105 16.9267 144.178 17.0067 144.232 17.14C144.285 17.26 144.358 17.3533 144.452 17.42C144.785 17.62 145.078 17.8533 145.332 18.12C145.585 18.3867 145.845 18.6467 146.112 18.9ZM142.872 23.38C143.258 23.38 143.718 23.3867 144.252 23.4C144.785 23.4 145.332 23.4 145.892 23.4C146.465 23.4 146.998 23.4 147.492 23.4C147.985 23.3867 148.392 23.38 148.712 23.38C149.032 23.3667 149.205 23.3533 149.232 23.34C149.338 23.2867 149.412 23.2533 149.452 23.24C149.398 23.2133 149.258 23.0933 149.032 22.88C148.818 22.6533 148.592 22.4133 148.352 22.16C148.112 21.9067 147.925 21.7067 147.792 21.56C147.685 21.4267 147.558 21.32 147.412 21.24C147.265 21.16 147.158 21.0533 147.092 20.92C147.012 20.7067 146.892 20.5333 146.732 20.4C146.572 20.2667 146.425 20.1333 146.292 20C146.172 19.8667 146.065 19.8733 145.972 20.02C145.838 20.1533 145.692 20.2933 145.532 20.44C145.372 20.5867 145.252 20.76 145.172 20.96C145.145 21.0267 145.092 21.0933 145.012 21.16C144.932 21.2133 144.858 21.2733 144.792 21.34C144.698 21.4467 144.598 21.56 144.492 21.68C144.398 21.8 144.285 21.8933 144.152 21.96C143.992 22.0267 143.872 22.1333 143.792 22.28C143.712 22.4133 143.612 22.5333 143.492 22.64C143.385 22.7333 143.278 22.86 143.172 23.02C143.078 23.1667 142.978 23.2867 142.872 23.38ZM159.755 24C159.688 24 159.615 23.98 159.535 23.94C159.455 23.8867 159.382 23.8733 159.315 23.9C159.262 23.9133 159.202 23.9333 159.135 23.96C159.068 23.9733 159.002 23.98 158.935 23.98H156.315C156.262 23.98 156.208 23.98 156.155 23.98C156.115 23.98 156.082 23.9733 156.055 23.96C155.962 23.8933 155.882 23.7867 155.815 23.64C155.802 23.6133 155.822 23.58 155.875 23.54C155.942 23.4867 156.002 23.4533 156.055 23.44C156.108 23.4267 156.162 23.42 156.215 23.42C156.268 23.42 156.322 23.42 156.375 23.42H157.495C157.602 23.42 157.668 23.4067 157.695 23.38C157.735 23.34 157.755 23.2733 157.755 23.18V14.1C157.755 13.9267 157.755 13.7867 157.755 13.68C157.768 13.56 157.722 13.4333 157.615 13.3C157.655 13.2333 157.682 13.14 157.695 13.02C157.722 12.8867 157.742 12.64 157.755 12.28C157.768 11.92 157.768 11.36 157.755 10.6C157.755 10.4933 157.788 10.4067 157.855 10.34C157.935 10.2733 158.022 10.2333 158.115 10.22C158.222 10.2067 158.322 10.2 158.415 10.2C158.508 10.2 158.595 10.16 158.675 10.08C158.688 10.0667 158.755 10.0533 158.875 10.04C159.008 10.0267 159.248 10.0133 159.595 10C159.955 9.98667 160.462 9.98 161.115 9.98C161.782 9.96667 162.655 9.97333 163.735 10C163.882 10 164.008 10.02 164.115 10.06C164.222 10.1 164.242 10.2067 164.175 10.38C164.162 10.4333 164.082 10.4867 163.935 10.54C163.788 10.5933 163.602 10.5933 163.375 10.54C163.322 10.5267 163.228 10.54 163.095 10.58C162.975 10.6067 162.828 10.62 162.655 10.62C162.628 10.62 162.582 10.6 162.515 10.56C162.462 10.5067 162.402 10.5133 162.335 10.58C162.295 10.62 162.242 10.64 162.175 10.64C162.108 10.64 162.055 10.64 162.015 10.64C161.722 10.6533 161.502 10.6667 161.355 10.68C161.222 10.6933 161.135 10.6667 161.095 10.6C160.762 10.52 160.522 10.5 160.375 10.54C160.228 10.5667 160.015 10.5867 159.735 10.6C159.482 10.6133 159.222 10.6267 158.955 10.64C158.688 10.6533 158.522 10.66 158.455 10.66C158.375 10.6733 158.335 10.7333 158.335 10.84C158.335 10.92 158.335 11.1467 158.335 11.52C158.348 11.8933 158.355 12.34 158.355 12.86C158.368 13.3667 158.375 13.8733 158.375 14.38C158.375 14.8867 158.368 15.32 158.355 15.68C158.342 16.04 158.315 16.24 158.275 16.28L158.355 16.8L158.335 22.56C158.335 22.9733 158.355 23.22 158.395 23.3C158.435 23.3667 158.468 23.4 158.495 23.4C158.602 23.4 158.782 23.4 159.035 23.4C159.288 23.4 159.555 23.4067 159.835 23.42C160.128 23.42 160.402 23.42 160.655 23.42C160.908 23.42 161.088 23.42 161.195 23.42C161.302 23.42 161.395 23.4267 161.475 23.44C161.568 23.4533 161.655 23.5 161.735 23.58C161.842 23.6733 161.875 23.76 161.835 23.84C161.808 23.9067 161.755 23.9533 161.675 23.98C161.675 23.9933 161.582 24 161.395 24C161.222 24 161.015 24 160.775 24C160.548 24 160.335 24 160.135 24C159.935 24 159.808 24 159.755 24ZM162.075 19.18C162.062 19.18 161.968 19.1133 161.795 18.98C161.622 18.8467 161.415 18.68 161.175 18.48C160.935 18.2667 160.688 18.0533 160.435 17.84C160.182 17.6133 159.962 17.42 159.775 17.26C159.682 17.1667 159.702 17.0733 159.835 16.98C159.942 16.8867 160.022 16.8 160.075 16.72C160.142 16.64 160.208 16.5667 160.275 16.5L160.495 16.26C160.562 16.1933 160.622 16.1333 160.675 16.08C160.742 16.0133 160.808 15.9333 160.875 15.84C160.902 15.8133 160.988 15.72 161.135 15.56C161.282 15.3867 161.382 15.26 161.435 15.18C161.515 15.1133 161.628 15.0067 161.775 14.86C161.935 14.7133 162.062 14.6267 162.155 14.6C162.235 14.6667 162.268 14.74 162.255 14.82C162.242 14.9 162.235 14.9733 162.235 15.04C162.182 15.12 162.168 15.2267 162.195 15.36L162.215 15.56C162.255 15.9467 162.255 16.3333 162.215 16.72C162.188 17.1067 162.195 17.4933 162.235 17.88C162.248 17.96 162.242 18.04 162.215 18.12C162.188 18.1867 162.182 18.26 162.195 18.34C162.208 18.3933 162.222 18.4533 162.235 18.52C162.262 18.5867 162.282 18.6467 162.295 18.7C162.295 18.7533 162.295 18.8 162.295 18.84C162.308 18.88 162.302 18.9267 162.275 18.98C162.275 19.0067 162.255 19.0467 162.215 19.1C162.188 19.1533 162.142 19.18 162.075 19.18ZM161.695 18.14C161.682 17.98 161.682 17.76 161.695 17.48C161.708 17.2 161.715 16.9267 161.715 16.66C161.715 16.3933 161.702 16.1867 161.675 16.04C161.648 15.8933 161.595 15.8667 161.515 15.96L160.655 16.92C160.602 16.9733 160.568 17.0133 160.555 17.04C160.555 17.0667 160.582 17.12 160.635 17.2C160.648 17.2267 160.662 17.2533 160.675 17.28C160.702 17.3067 160.715 17.3333 160.715 17.36C160.768 17.52 160.908 17.6333 161.135 17.7C161.162 17.7 161.202 17.7267 161.255 17.78C161.308 17.82 161.415 17.9333 161.575 18.12C161.602 18.1467 161.642 18.1533 161.695 18.14ZM156.235 17.78C155.995 17.78 155.828 17.7 155.735 17.54C155.642 17.3667 155.595 17.2333 155.595 17.14C155.595 16.98 155.662 16.8467 155.795 16.74C155.942 16.62 156.142 16.56 156.395 16.56C156.528 16.5333 156.635 16.5467 156.715 16.6C156.808 16.6533 156.895 16.7333 156.975 16.84C157.082 16.9867 157.082 17.14 156.975 17.3C156.882 17.3933 156.768 17.5 156.635 17.62C156.515 17.7267 156.382 17.78 156.235 17.78ZM156.295 17.3C156.402 17.3 156.462 17.26 156.475 17.18C156.502 17.1533 156.502 17.1133 156.475 17.06C156.448 17.02 156.408 17.0067 156.355 17.02C156.235 17.02 156.175 17.06 156.175 17.14C156.175 17.1533 156.182 17.1867 156.195 17.24C156.208 17.28 156.242 17.3 156.295 17.3ZM167.629 24.08C167.563 24.04 167.476 24.02 167.369 24.02C167.276 24.02 167.176 24.02 167.069 24.02C167.016 24.0067 166.863 24 166.609 24C166.369 24 166.123 24 165.869 24C165.629 24 165.476 24 165.409 24C165.156 24 165.016 23.86 164.989 23.58V15.02C165.509 15.02 166.083 15.02 166.709 15.02C167.349 15.0067 168.003 15 168.669 15C169.336 15 169.969 15.0067 170.569 15.02C171.183 15.02 171.716 15.02 172.169 15.02C172.236 15.02 172.296 15.0333 172.349 15.06C172.416 15.0867 172.449 15.1333 172.449 15.2V23.54C172.449 23.5933 172.443 23.6533 172.429 23.72C172.429 23.7733 172.416 23.8133 172.389 23.84C172.296 23.8933 172.203 23.9467 172.109 24C172.029 24.04 171.943 24.06 171.849 24.06C171.623 24.06 171.416 24.0733 171.229 24.1C171.043 24.1267 170.856 24.0733 170.669 23.94C170.576 24.0733 170.489 24.1 170.409 24.02C170.329 23.9533 170.243 23.9333 170.149 23.96C170.109 23.9733 169.996 23.9867 169.809 24C169.636 24 169.429 24 169.189 24C168.963 24.0133 168.749 24.0133 168.549 24C168.363 24 168.229 24 168.149 24C168.056 23.9867 167.969 24.0133 167.889 24.08C167.823 24.1467 167.736 24.1467 167.629 24.08ZM169.169 23.5C169.276 23.5 169.469 23.4933 169.749 23.48C170.029 23.4533 170.349 23.4333 170.709 23.42C171.083 23.3933 171.436 23.38 171.769 23.38C171.796 23.3267 171.809 23.1867 171.809 22.96C171.809 22.7333 171.803 22.5 171.789 22.26C171.776 22.02 171.769 21.8733 171.769 21.82V19.28C171.809 18.7467 171.836 18.3533 171.849 18.1C171.863 17.8333 171.863 17.62 171.849 17.46C171.849 17.2867 171.843 17.08 171.829 16.84C171.816 16.5867 171.809 16.2133 171.809 15.72C171.769 15.72 171.649 15.7133 171.449 15.7C171.263 15.6733 171.096 15.6533 170.949 15.64C170.909 15.64 170.743 15.64 170.449 15.64C170.169 15.64 169.843 15.6467 169.469 15.66C169.109 15.6733 168.783 15.6867 168.489 15.7C168.209 15.7 168.043 15.7 167.989 15.7C167.909 15.58 167.829 15.56 167.749 15.64C167.669 15.7067 167.556 15.7267 167.409 15.7C167.316 15.5933 167.223 15.5467 167.129 15.56C167.036 15.56 166.936 15.56 166.829 15.56C166.683 15.56 166.476 15.5667 166.209 15.58C165.943 15.5933 165.736 15.6133 165.589 15.64C165.536 15.7733 165.503 15.9 165.489 16.02C165.476 16.1267 165.509 16.2267 165.589 16.32C165.616 16.3333 165.636 16.3667 165.649 16.42C165.663 16.4733 165.656 16.5067 165.629 16.52V17.76C165.669 17.8267 165.676 17.88 165.649 17.92C165.516 18.0533 165.503 18.22 165.609 18.42C165.636 18.4733 165.656 18.5333 165.669 18.6C165.683 18.6667 165.689 18.7333 165.689 18.8C165.689 18.9467 165.643 19.0867 165.549 19.22C165.483 19.3133 165.476 19.3867 165.529 19.44C165.609 19.5467 165.649 19.7 165.649 19.9C165.649 20.0467 165.649 20.2867 165.649 20.62C165.649 20.94 165.643 21.26 165.629 21.58C165.629 21.9 165.629 22.1333 165.629 22.28C165.629 22.3733 165.623 22.4733 165.609 22.58C165.609 22.6867 165.596 22.88 165.569 23.16C165.569 23.32 165.616 23.4 165.709 23.4C165.869 23.4 166.103 23.4 166.409 23.4C166.716 23.4 167.009 23.4067 167.289 23.42C167.569 23.42 167.729 23.44 167.769 23.48C167.823 23.52 167.876 23.5133 167.929 23.46C167.996 23.3933 168.056 23.3733 168.109 23.4C168.163 23.4267 168.216 23.4533 168.269 23.48C168.323 23.4933 168.383 23.48 168.449 23.44C168.529 23.3867 168.583 23.3733 168.609 23.4C168.703 23.4667 168.796 23.5 168.889 23.5C168.983 23.5 169.076 23.5 169.169 23.5ZM169.009 20.14C168.876 20.2733 168.709 20.2867 168.509 20.18C168.323 20.0733 168.183 19.96 168.089 19.84C168.009 19.7333 167.969 19.6267 167.969 19.52C167.969 19.4133 168.003 19.3 168.069 19.18C168.149 19.0467 168.236 18.9733 168.329 18.96C168.476 18.9333 168.649 18.9333 168.849 18.96C169.063 18.9733 169.169 19.08 169.169 19.28C169.169 19.4267 169.216 19.5333 169.309 19.6C169.403 19.6667 169.396 19.7533 169.289 19.86L169.009 20.14ZM168.749 19.74L168.829 19.66C168.856 19.6333 168.856 19.6133 168.829 19.6C168.803 19.5867 168.789 19.5533 168.789 19.5C168.789 19.4467 168.763 19.42 168.709 19.42C168.656 19.4067 168.609 19.4067 168.569 19.42C168.503 19.4467 168.469 19.5 168.469 19.58C168.469 19.62 168.483 19.6467 168.509 19.66C168.536 19.6867 168.569 19.72 168.609 19.76C168.663 19.7867 168.709 19.78 168.749 19.74ZM174.552 24.02C174.432 24.02 174.325 23.9733 174.232 23.88C174.219 23.84 174.199 23.78 174.172 23.7C174.145 23.62 174.125 23.4667 174.112 23.24C174.099 23 174.085 22.6467 174.072 22.18C174.072 22.1133 174.065 22.0533 174.052 22C174.039 21.9333 174.045 21.88 174.072 21.84C174.099 21.8 174.125 21.6133 174.152 21.28C174.179 20.9467 174.199 20.5333 174.212 20.04C174.225 19.5333 174.232 19.0267 174.232 18.52C174.245 18 174.252 17.54 174.252 17.14C174.252 16.8733 174.252 16.6533 174.252 16.48C174.252 16.2933 174.245 16.1933 174.232 16.18C174.179 15.94 174.159 15.7667 174.172 15.66C174.199 15.5533 174.199 15.4533 174.172 15.36C174.159 15.3333 174.152 15.3 174.152 15.26C174.152 15.1 174.279 15.0067 174.532 14.98C175.039 14.9533 175.405 14.9467 175.632 14.96C175.859 14.9733 176.112 14.9867 176.392 15H177.032C177.339 15 177.672 15.02 178.032 15.06C178.405 15.0867 178.659 15.0667 178.792 15C178.819 14.9867 178.852 14.98 178.892 14.98C179.025 14.98 179.092 15.0533 179.092 15.2C179.105 15.6133 179.112 15.9667 179.112 16.26C179.112 16.54 179.112 16.82 179.112 17.1C179.112 17.38 179.112 17.6733 179.112 17.98C179.112 18.2733 179.105 18.6333 179.092 19.06C179.052 19.1533 178.985 19.2 178.892 19.2C178.719 19.2 178.559 19.1133 178.412 18.94C178.359 18.8733 178.312 18.8 178.272 18.72C178.245 18.64 178.199 18.5733 178.132 18.52C178.065 18.4533 177.985 18.4 177.892 18.36C177.799 18.32 177.719 18.2667 177.652 18.2C177.319 17.8133 176.945 17.48 176.532 17.2C176.119 16.9067 175.745 16.5733 175.412 16.2C175.385 16.1733 175.352 16.1467 175.312 16.12C175.285 16.0933 175.259 16.06 175.232 16.02C175.139 15.8467 175.052 15.76 174.972 15.76C174.892 15.76 174.852 15.8133 174.852 15.92L174.772 23.88C174.732 23.9733 174.659 24.02 174.552 24.02ZM178.512 18.02C178.579 17.9933 178.579 17.9 178.512 17.74C178.459 17.58 178.432 17.44 178.432 17.32C178.445 17.2667 178.459 17.2133 178.472 17.16C178.485 17.1067 178.499 17.06 178.512 17.02C178.579 16.9533 178.579 16.8333 178.512 16.66C178.499 16.5933 178.499 16.52 178.512 16.44C178.539 16.36 178.539 16.2867 178.512 16.22C178.499 16.14 178.499 16.0467 178.512 15.94C178.539 15.8333 178.545 15.76 178.532 15.72C178.519 15.6533 178.465 15.6267 178.372 15.64C178.292 15.6533 178.192 15.66 178.072 15.66C177.805 15.66 177.552 15.6667 177.312 15.68C177.072 15.68 176.819 15.68 176.552 15.68C176.325 15.68 176.145 15.6733 176.012 15.66C175.879 15.6467 175.799 15.6467 175.772 15.66C175.972 15.86 176.219 16.1 176.512 16.38C176.805 16.6467 177.099 16.9067 177.392 17.16C177.685 17.4133 177.939 17.6267 178.152 17.8C178.365 17.96 178.485 18.0333 178.512 18.02ZM182.987 24.18C182.747 24.18 182.567 24.14 182.447 24.06C182.38 23.9933 182.333 23.9333 182.307 23.88C182.28 23.8133 182.26 23.76 182.247 23.72V15.66C181.873 15.6467 181.493 15.66 181.107 15.7C180.733 15.74 180.42 15.76 180.167 15.76C179.993 15.76 179.833 15.72 179.687 15.64C179.487 15.44 179.447 15.2867 179.567 15.18C179.687 15.0733 179.887 15.02 180.167 15.02H182.247V12.14C182.247 11.8333 182.293 11.64 182.387 11.56C182.48 11.48 182.613 11.4733 182.787 11.54C182.853 11.5533 182.887 11.6867 182.887 11.94C182.887 12.0733 182.88 12.2667 182.867 12.52C182.853 12.7733 182.847 13.2267 182.847 13.88V15.02H185.367C185.473 15.02 185.567 15.0667 185.647 15.16C185.727 15.2533 185.767 15.3333 185.767 15.4C185.767 15.48 185.687 15.5733 185.527 15.68C185.367 15.7733 185.22 15.82 185.087 15.82C185.06 15.8067 185.027 15.8 184.987 15.8C184.947 15.8 184.913 15.8 184.887 15.8C184.753 15.7733 184.553 15.7533 184.287 15.74C184.02 15.7133 183.753 15.6933 183.487 15.68C183.22 15.6667 183.007 15.66 182.847 15.66C182.873 15.7133 182.887 15.9 182.887 16.22C182.9 16.54 182.907 16.9267 182.907 17.38C182.92 17.82 182.927 18.26 182.927 18.7C182.94 19.14 182.947 19.5133 182.947 19.82C182.947 20.1267 182.947 20.2933 182.947 20.32C182.947 20.9733 182.947 21.5267 182.947 21.98C182.96 22.4333 182.953 22.9333 182.927 23.48C182.953 23.48 183.04 23.4067 183.187 23.26C183.347 23.1133 183.52 22.94 183.707 22.74C183.907 22.54 184.073 22.3733 184.207 22.24C184.287 22.1467 184.407 22.0267 184.567 21.88C184.74 21.7333 184.873 21.6133 184.967 21.52C185.18 21.2667 185.333 21.08 185.427 20.96C185.533 20.8267 185.633 20.76 185.727 20.76L185.767 20.96C185.9 21.0133 185.953 21.0933 185.927 21.2C185.913 21.3067 185.873 21.4133 185.807 21.52C185.727 21.6667 185.633 21.7933 185.527 21.9C185.433 21.9933 185.307 22.1 185.147 22.22C185.107 22.2467 185.06 22.3067 185.007 22.4C184.953 22.4933 184.9 22.5667 184.847 22.62C184.633 22.7933 184.407 23 184.167 23.24C183.927 23.48 183.7 23.6933 183.487 23.88C183.273 24.0667 183.107 24.1667 182.987 24.18ZM187.383 24.14C187.303 24.0467 187.209 23.9667 187.103 23.9C186.996 23.82 186.943 23.7067 186.943 23.56V15.38C186.943 15.1933 187.003 15.0733 187.123 15.02C187.256 14.9533 187.383 14.9467 187.503 15C187.623 15.0533 187.683 15.1733 187.683 15.36V16.66C187.683 16.7133 187.669 16.8067 187.643 16.94C187.629 17.06 187.609 17.14 187.583 17.18C187.516 17.2733 187.483 17.38 187.483 17.5C187.483 17.6067 187.496 17.7067 187.523 17.8C187.549 17.8933 187.583 17.98 187.623 18.06C187.676 18.1267 187.696 18.2133 187.683 18.32V19.88C187.576 20 187.516 20.14 187.503 20.3C187.503 20.46 187.503 20.6067 187.503 20.74C187.583 20.8733 187.629 21.0067 187.643 21.14C187.669 21.2733 187.683 21.4133 187.683 21.56C187.683 21.64 187.676 21.7867 187.663 22C187.663 22.2133 187.663 22.52 187.663 22.92C187.663 23.08 187.703 23.24 187.783 23.4C187.916 23.4133 188.116 23.42 188.383 23.42C188.663 23.4067 188.849 23.3867 188.943 23.36C189.129 23.3067 189.249 23.3 189.303 23.34C189.356 23.38 189.449 23.4 189.583 23.4C189.996 23.4 190.303 23.3733 190.503 23.32C190.716 23.2667 190.863 23.2733 190.943 23.34C191.063 23.4333 191.169 23.44 191.263 23.36C191.369 23.28 191.469 23.24 191.563 23.24C191.656 23.24 191.736 23.2667 191.803 23.32C191.883 23.3733 191.963 23.4 192.043 23.4C192.096 23.4 192.196 23.38 192.343 23.34C192.489 23.3 192.636 23.2733 192.783 23.26C192.929 23.2333 193.029 23.24 193.083 23.28C193.189 23.3467 193.336 23.4 193.523 23.44C193.723 23.4667 193.943 23.4133 194.183 23.28C194.236 23.24 194.276 23.1933 194.303 23.14C194.329 23.0733 194.323 23.0133 194.283 22.96C194.176 22.8133 194.116 22.6933 194.103 22.6C194.103 22.4933 194.163 22.3667 194.283 22.22C194.149 22.06 194.096 21.8867 194.123 21.7C194.149 21.5133 194.209 21.3267 194.303 21.14C194.343 21.0733 194.349 20.9933 194.323 20.9C194.309 20.7933 194.303 20.6933 194.303 20.6C194.303 19.8133 194.303 18.98 194.303 18.1C194.303 17.22 194.309 16.3867 194.323 15.6C194.323 15.5333 194.323 15.4667 194.323 15.4C194.323 15.3333 194.349 15.26 194.403 15.18C194.469 15.1 194.556 15.0333 194.663 14.98C194.783 14.9267 194.889 14.9133 194.983 14.94C195.089 14.9533 195.143 15.04 195.143 15.2C195.143 15.4533 195.116 15.6333 195.063 15.74C195.009 15.8333 194.969 15.9267 194.943 16.02C194.916 16.1 194.949 16.26 195.043 16.5C194.909 16.6733 194.876 16.8333 194.943 16.98C195.023 17.1267 195.063 17.2667 195.063 17.4C195.063 17.5867 195.043 17.7133 195.003 17.78C194.976 17.8467 194.943 17.9267 194.903 18.02C194.876 18.1133 194.863 18.32 194.863 18.64C194.863 18.7333 194.863 18.96 194.863 19.32C194.863 19.6667 194.863 20.0733 194.863 20.54C194.863 21.0067 194.863 21.4733 194.863 21.94C194.863 22.3933 194.863 22.78 194.863 23.1C194.863 23.42 194.863 23.5933 194.863 23.62C194.863 23.6867 194.816 23.7667 194.723 23.86C194.643 23.94 194.569 23.98 194.503 23.98C194.396 23.9933 194.123 24 193.683 24C193.256 24 192.749 24 192.163 24C191.576 24 190.989 24 190.403 24C189.816 23.9867 189.309 23.98 188.883 23.98C188.456 23.9667 188.196 23.96 188.103 23.96C187.996 23.96 187.883 23.9733 187.763 24C187.656 24.0267 187.529 24.0733 187.383 24.14ZM190.583 20.16L190.303 19.88C190.196 19.7733 190.189 19.6867 190.283 19.62C190.376 19.5533 190.423 19.4467 190.423 19.3C190.423 19.1 190.529 18.9933 190.743 18.98C190.956 18.9533 191.129 18.9533 191.263 18.98C191.356 18.9933 191.436 19.0667 191.503 19.2C191.583 19.32 191.623 19.4333 191.623 19.54C191.623 19.6467 191.583 19.7533 191.503 19.86C191.409 19.98 191.269 20.0933 191.083 20.2C190.896 20.3067 190.729 20.2933 190.583 20.16ZM190.843 19.76C190.883 19.8 190.929 19.8067 190.983 19.78C191.036 19.74 191.069 19.7067 191.083 19.68C191.109 19.6667 191.123 19.64 191.123 19.6C191.123 19.52 191.089 19.4667 191.023 19.44C190.983 19.4267 190.936 19.4267 190.883 19.44C190.829 19.44 190.803 19.4667 190.803 19.52C190.803 19.5733 190.789 19.6067 190.763 19.62C190.736 19.6333 190.736 19.6533 190.763 19.68L190.843 19.76ZM204.567 24C204.474 24 204.387 23.9667 204.307 23.9C204.241 23.82 204.207 23.7133 204.207 23.58V22.3C204.207 22.2333 204.221 22.1733 204.247 22.12C204.274 22.0533 204.294 21.9933 204.307 21.94C204.321 21.8867 204.327 21.84 204.327 21.8C204.341 21.76 204.347 21.72 204.347 21.68C204.347 21.5333 204.321 21.4067 204.267 21.3C204.214 21.18 204.187 21.0333 204.187 20.86C204.187 20.7533 204.194 20.5867 204.207 20.36C204.221 20.12 204.234 19.8733 204.247 19.62C204.261 19.3533 204.274 19.12 204.287 18.92C204.301 18.7067 204.307 18.5733 204.307 18.52C204.227 18.3733 204.187 18.22 204.187 18.06C204.201 17.9 204.207 17.7533 204.207 17.62C204.207 17.5267 204.207 17.34 204.207 17.06C204.207 16.78 204.214 16.36 204.227 15.8C204.227 15.7733 204.121 15.7733 203.907 15.8C203.694 15.8133 203.501 15.7933 203.327 15.74C203.314 15.7267 203.241 15.72 203.107 15.72C202.987 15.72 202.867 15.72 202.747 15.72C202.627 15.7067 202.554 15.7 202.527 15.7C202.514 15.7 202.501 15.7 202.487 15.7C202.287 16.0867 202.081 16.4667 201.867 16.84C201.654 17.2133 201.407 17.62 201.127 18.06C200.847 18.4867 200.507 18.9933 200.107 19.58C199.494 20.4867 198.974 21.3333 198.547 22.12C198.121 22.9067 197.774 23.4733 197.507 23.82C197.361 24.0067 197.187 24.0533 196.987 23.96C196.827 23.8933 196.747 23.7333 196.747 23.48C196.747 23.4133 196.754 23.3267 196.767 23.22C196.781 23.1133 196.794 23.04 196.807 23C196.834 22.9333 196.861 22.8267 196.887 22.68C196.914 22.5333 196.914 22.42 196.887 22.34C196.861 22.2867 196.834 22.2133 196.807 22.12C196.794 22.0133 196.794 21.94 196.807 21.9C196.887 21.3933 196.934 20.9333 196.947 20.52C196.974 20.1067 196.987 19.6733 196.987 19.22V15.42C196.987 15.34 197.027 15.26 197.107 15.18C197.201 15.0867 197.281 15.04 197.347 15.04C197.374 15.04 197.554 15.04 197.887 15.04C198.234 15.0267 198.667 15.02 199.187 15.02C199.707 15.02 200.261 15.02 200.847 15.02C201.434 15.0067 201.987 15 202.507 15C203.041 15 203.481 15 203.827 15C204.187 15 204.394 15 204.447 15C204.781 15 204.947 15.16 204.947 15.48V23.56C204.947 23.7067 204.907 23.82 204.827 23.9C204.747 23.9667 204.661 24 204.567 24ZM197.667 20.72C197.667 20.8667 197.654 21.06 197.627 21.3C197.601 21.54 197.574 21.78 197.547 22.02C197.534 22.26 197.534 22.4533 197.547 22.6C197.627 22.4133 197.761 22.1667 197.947 21.86C198.147 21.5533 198.354 21.2267 198.567 20.88C198.794 20.52 199.001 20.1867 199.187 19.88C199.374 19.5733 199.514 19.3333 199.607 19.16C199.661 19.0667 199.747 18.94 199.867 18.78C200.001 18.62 200.127 18.46 200.247 18.3C200.381 18.1267 200.461 18 200.487 17.92C200.594 17.6133 200.694 17.4067 200.787 17.3C200.894 17.18 200.994 17.0667 201.087 16.96C201.194 16.8533 201.301 16.66 201.407 16.38C201.421 16.3667 201.461 16.2933 201.527 16.16C201.607 16.0133 201.687 15.8733 201.767 15.74C201.701 15.6867 201.634 15.66 201.567 15.66C201.514 15.66 201.461 15.6733 201.407 15.7C201.367 15.7267 201.321 15.7533 201.267 15.78C201.214 15.8067 201.174 15.82 201.147 15.82C201.054 15.82 200.961 15.7867 200.867 15.72C200.787 15.6533 200.694 15.6333 200.587 15.66C200.547 15.66 200.434 15.68 200.247 15.72C200.074 15.7467 199.874 15.7733 199.647 15.8C199.434 15.8267 199.247 15.84 199.087 15.84C198.914 15.84 198.807 15.82 198.767 15.78C198.714 15.7533 198.647 15.72 198.567 15.68C198.487 15.6267 198.387 15.6 198.267 15.6C198.201 15.6 198.121 15.6133 198.027 15.64C197.947 15.6667 197.854 15.7133 197.747 15.78C197.694 15.82 197.654 15.8733 197.627 15.94C197.601 16.0067 197.614 16.0733 197.667 16.14C197.761 16.2733 197.807 16.4067 197.807 16.54C197.807 16.6467 197.767 16.7533 197.687 16.86C197.767 17.0333 197.807 17.1933 197.807 17.34C197.807 17.46 197.794 17.58 197.767 17.7C197.741 17.8067 197.721 17.9267 197.707 18.06C197.694 18.2067 197.681 18.4 197.667 18.64C197.667 18.8667 197.667 19.12 197.667 19.4V20.72ZM202.227 20.98C202.174 20.98 202.074 20.9867 201.927 21C201.781 21 201.641 20.9867 201.507 20.96C201.374 20.9333 201.294 20.8867 201.267 20.82C201.254 20.7133 201.234 20.5933 201.207 20.46C201.194 20.3267 201.241 20.1933 201.347 20.06C201.401 19.9667 201.507 19.86 201.667 19.74C201.827 19.6067 201.954 19.5733 202.047 19.64C202.314 19.76 202.447 20.0267 202.447 20.44C202.447 20.5333 202.427 20.6467 202.387 20.78C202.361 20.9133 202.307 20.98 202.227 20.98ZM201.927 20.5C201.954 20.5 201.967 20.48 201.967 20.44C201.981 20.4 201.987 20.3667 201.987 20.34C201.987 20.2333 201.961 20.16 201.907 20.12C201.881 20.0933 201.841 20.1067 201.787 20.16C201.747 20.2 201.721 20.2333 201.707 20.26C201.681 20.2867 201.667 20.32 201.667 20.36C201.667 20.3867 201.667 20.42 201.667 20.46C201.681 20.4867 201.721 20.5 201.787 20.5C201.867 20.5 201.914 20.5 201.927 20.5ZM212.452 24.08C212.199 24.08 211.865 24.0533 211.452 24C211.039 23.9333 210.625 23.8933 210.212 23.88C209.799 23.8667 209.465 23.92 209.212 24.04C209.105 23.9733 208.939 23.94 208.712 23.94C208.499 23.94 208.279 23.9533 208.052 23.98C207.839 23.9933 207.665 24.0067 207.532 24.02H207.272C206.939 24.02 206.699 23.9733 206.552 23.88C206.419 23.7733 206.352 23.6533 206.352 23.52C206.352 23.2267 206.545 22.94 206.932 22.66C207.079 22.5533 207.219 22.44 207.352 22.32C207.485 22.1867 207.632 22.0533 207.792 21.92C207.965 21.7067 208.165 21.5267 208.392 21.38C208.632 21.2333 208.859 21.1 209.072 20.98C209.299 20.8467 209.472 20.7 209.592 20.54C209.832 20.2467 210.112 20.0133 210.432 19.84C210.752 19.6533 211.039 19.4533 211.292 19.24C211.532 19.04 211.765 18.84 211.992 18.64C212.232 18.44 212.472 18.2333 212.712 18.02C212.832 17.9133 212.979 17.8133 213.152 17.72C213.325 17.6133 213.545 17.5133 213.812 17.42C213.932 17.2867 214.065 17.2 214.212 17.16C214.372 17.1067 214.505 17.0467 214.612 16.98C214.732 16.9133 214.792 16.7867 214.792 16.6C214.792 16.4267 214.745 16.2133 214.652 15.96C214.572 15.7067 214.405 15.58 214.152 15.58C214.099 15.58 213.932 15.5867 213.652 15.6C213.385 15.6133 213.112 15.6333 212.832 15.66C212.565 15.6733 212.392 15.68 212.312 15.68C212.192 15.68 212.065 15.6733 211.932 15.66C211.812 15.6333 211.692 15.5867 211.572 15.52C211.505 15.4933 211.419 15.4867 211.312 15.5C211.205 15.5 211.099 15.5 210.992 15.5C210.752 15.5267 210.592 15.54 210.512 15.54C210.445 15.5267 210.285 15.5133 210.032 15.5C209.939 15.5 209.845 15.5133 209.752 15.54C209.672 15.5533 209.579 15.5733 209.472 15.6C209.219 15.64 209.045 15.6667 208.952 15.68C208.872 15.6933 208.805 15.7 208.752 15.7C208.619 15.7 208.492 15.6733 208.372 15.62C208.252 15.5533 208.132 15.5067 208.012 15.48C207.959 15.4667 207.932 15.42 207.932 15.34C207.945 15.26 207.972 15.2133 208.012 15.2C208.132 15.1733 208.219 15.1267 208.272 15.06C208.339 14.9933 208.439 14.96 208.572 14.96C208.652 14.96 208.865 14.9667 209.212 14.98C209.572 14.98 209.992 14.98 210.472 14.98C210.965 14.98 211.452 14.98 211.932 14.98C212.412 14.98 212.819 14.98 213.152 14.98C213.499 14.98 213.699 14.9733 213.752 14.96C214.125 14.8933 214.439 14.88 214.692 14.92C214.945 14.9467 215.099 15.0133 215.152 15.12C215.219 15.1733 215.265 15.28 215.292 15.44C215.319 15.6 215.332 15.76 215.332 15.92C215.332 16.6533 215.339 17.24 215.352 17.68C215.365 18.12 215.379 18.4867 215.392 18.78C215.405 19.0733 215.412 19.3467 215.412 19.6C215.412 19.8533 215.405 20.1533 215.392 20.5C215.392 20.8333 215.372 21.28 215.332 21.84C215.319 21.9333 215.312 22.0267 215.312 22.12C215.312 22.2133 215.312 22.3067 215.312 22.4C215.312 22.5333 215.319 22.66 215.332 22.78C215.345 22.8867 215.379 23 215.432 23.12C215.379 23.3467 215.312 23.54 215.232 23.7C215.165 23.86 215.025 23.9333 214.812 23.92C214.559 23.9067 214.379 23.9067 214.272 23.92C214.165 23.9333 214.079 23.9533 214.012 23.98C213.959 23.9933 213.879 24.0067 213.772 24.02C213.679 24.0333 213.505 24.04 213.252 24.04C213.119 24.04 212.985 24.0467 212.852 24.06C212.719 24.0733 212.585 24.08 212.452 24.08ZM209.192 23.48C209.312 23.4133 209.512 23.3667 209.792 23.34C210.072 23.3133 210.372 23.3067 210.692 23.32C211.025 23.32 211.325 23.3267 211.592 23.34C211.872 23.3533 212.072 23.36 212.192 23.36C212.432 23.36 212.672 23.36 212.912 23.36C213.165 23.36 213.412 23.3533 213.652 23.34C213.759 23.34 213.892 23.3333 214.052 23.32C214.225 23.2933 214.379 23.2267 214.512 23.12C214.645 23.0133 214.705 22.8267 214.692 22.56C214.679 22.28 214.672 21.9133 214.672 21.46C214.672 21.0067 214.672 20.5267 214.672 20.02C214.685 19.5 214.699 19.0133 214.712 18.56C214.739 18.1067 214.765 17.74 214.792 17.46C214.672 17.66 214.479 17.8133 214.212 17.92C213.945 18.0133 213.685 18.1133 213.432 18.22C213.179 18.3133 212.999 18.4667 212.892 18.68C212.585 18.92 212.292 19.1867 212.012 19.48C211.745 19.7733 211.432 19.9867 211.072 20.12C210.979 20.16 210.879 20.2333 210.772 20.34C210.665 20.4333 210.565 20.5267 210.472 20.62C210.285 20.8067 210.025 21.0133 209.692 21.24C209.372 21.4667 209.059 21.68 208.752 21.88C208.445 22.08 208.232 22.2333 208.112 22.34C208.072 22.3667 207.999 22.44 207.892 22.56C207.799 22.6667 207.705 22.7867 207.612 22.92C207.519 23.04 207.459 23.1467 207.432 23.24C207.419 23.3333 207.472 23.38 207.592 23.38C207.685 23.38 207.839 23.3733 208.052 23.36C208.265 23.3467 208.479 23.3467 208.692 23.36C208.919 23.3733 209.085 23.4133 209.192 23.48ZM212.072 22.02C211.832 22.02 211.665 21.94 211.572 21.78C211.479 21.6067 211.432 21.4733 211.432 21.38C211.432 21.22 211.499 21.0867 211.632 20.98C211.779 20.86 211.979 20.8 212.232 20.8C212.365 20.7733 212.472 20.7867 212.552 20.84C212.645 20.8933 212.732 20.9733 212.812 21.08C212.919 21.2267 212.919 21.38 212.812 21.54C212.719 21.6333 212.605 21.74 212.472 21.86C212.352 21.9667 212.219 22.02 212.072 22.02ZM212.132 21.56C212.225 21.56 212.292 21.5133 212.332 21.42C212.359 21.3933 212.359 21.3533 212.332 21.3C212.279 21.2467 212.232 21.2267 212.192 21.24C212.059 21.24 211.992 21.2867 211.992 21.38C211.992 21.3933 211.999 21.4267 212.012 21.48C212.039 21.5333 212.079 21.56 212.132 21.56ZM219.92 24.18C219.68 24.18 219.5 24.14 219.38 24.06C219.314 23.9933 219.267 23.9333 219.24 23.88C219.214 23.8133 219.194 23.76 219.18 23.72V15.66C218.807 15.6467 218.427 15.66 218.04 15.7C217.667 15.74 217.354 15.76 217.1 15.76C216.927 15.76 216.767 15.72 216.62 15.64C216.42 15.44 216.38 15.2867 216.5 15.18C216.62 15.0733 216.82 15.02 217.1 15.02H219.18V12.14C219.18 11.8333 219.227 11.64 219.32 11.56C219.414 11.48 219.547 11.4733 219.72 11.54C219.787 11.5533 219.82 11.6867 219.82 11.94C219.82 12.0733 219.814 12.2667 219.8 12.52C219.787 12.7733 219.78 13.2267 219.78 13.88V15.02H222.3C222.407 15.02 222.5 15.0667 222.58 15.16C222.66 15.2533 222.7 15.3333 222.7 15.4C222.7 15.48 222.62 15.5733 222.46 15.68C222.3 15.7733 222.154 15.82 222.02 15.82C221.994 15.8067 221.96 15.8 221.92 15.8C221.88 15.8 221.847 15.8 221.82 15.8C221.687 15.7733 221.487 15.7533 221.22 15.74C220.954 15.7133 220.687 15.6933 220.42 15.68C220.154 15.6667 219.94 15.66 219.78 15.66C219.807 15.7133 219.82 15.9 219.82 16.22C219.834 16.54 219.84 16.9267 219.84 17.38C219.854 17.82 219.86 18.26 219.86 18.7C219.874 19.14 219.88 19.5133 219.88 19.82C219.88 20.1267 219.88 20.2933 219.88 20.32C219.88 20.9733 219.88 21.5267 219.88 21.98C219.894 22.4333 219.887 22.9333 219.86 23.48C219.887 23.48 219.974 23.4067 220.12 23.26C220.28 23.1133 220.454 22.94 220.64 22.74C220.84 22.54 221.007 22.3733 221.14 22.24C221.22 22.1467 221.34 22.0267 221.5 21.88C221.674 21.7333 221.807 21.6133 221.9 21.52C222.114 21.2667 222.267 21.08 222.36 20.96C222.467 20.8267 222.567 20.76 222.66 20.76L222.7 20.96C222.834 21.0133 222.887 21.0933 222.86 21.2C222.847 21.3067 222.807 21.4133 222.74 21.52C222.66 21.6667 222.567 21.7933 222.46 21.9C222.367 21.9933 222.24 22.1 222.08 22.22C222.04 22.2467 221.994 22.3067 221.94 22.4C221.887 22.4933 221.834 22.5667 221.78 22.62C221.567 22.7933 221.34 23 221.1 23.24C220.86 23.48 220.634 23.6933 220.42 23.88C220.207 24.0667 220.04 24.1667 219.92 24.18ZM226.516 24.08C226.45 24.04 226.363 24.02 226.256 24.02C226.163 24.02 226.063 24.02 225.956 24.02C225.903 24.0067 225.75 24 225.496 24C225.256 24 225.01 24 224.756 24C224.516 24 224.363 24 224.296 24C224.043 24 223.903 23.86 223.876 23.58V15.02C224.396 15.02 224.97 15.02 225.596 15.02C226.236 15.0067 226.89 15 227.556 15C228.223 15 228.856 15.0067 229.456 15.02C230.07 15.02 230.603 15.02 231.056 15.02C231.123 15.02 231.183 15.0333 231.236 15.06C231.303 15.0867 231.336 15.1333 231.336 15.2V23.54C231.336 23.5933 231.33 23.6533 231.316 23.72C231.316 23.7733 231.303 23.8133 231.276 23.84C231.183 23.8933 231.09 23.9467 230.996 24C230.916 24.04 230.83 24.06 230.736 24.06C230.51 24.06 230.303 24.0733 230.116 24.1C229.93 24.1267 229.743 24.0733 229.556 23.94C229.463 24.0733 229.376 24.1 229.296 24.02C229.216 23.9533 229.13 23.9333 229.036 23.96C228.996 23.9733 228.883 23.9867 228.696 24C228.523 24 228.316 24 228.076 24C227.85 24.0133 227.636 24.0133 227.436 24C227.25 24 227.116 24 227.036 24C226.943 23.9867 226.856 24.0133 226.776 24.08C226.71 24.1467 226.623 24.1467 226.516 24.08ZM228.056 23.5C228.163 23.5 228.356 23.4933 228.636 23.48C228.916 23.4533 229.236 23.4333 229.596 23.42C229.97 23.3933 230.323 23.38 230.656 23.38C230.683 23.3267 230.696 23.1867 230.696 22.96C230.696 22.7333 230.69 22.5 230.676 22.26C230.663 22.02 230.656 21.8733 230.656 21.82V19.28C230.696 18.7467 230.723 18.3533 230.736 18.1C230.75 17.8333 230.75 17.62 230.736 17.46C230.736 17.2867 230.73 17.08 230.716 16.84C230.703 16.5867 230.696 16.2133 230.696 15.72C230.656 15.72 230.536 15.7133 230.336 15.7C230.15 15.6733 229.983 15.6533 229.836 15.64C229.796 15.64 229.63 15.64 229.336 15.64C229.056 15.64 228.73 15.6467 228.356 15.66C227.996 15.6733 227.67 15.6867 227.376 15.7C227.096 15.7 226.93 15.7 226.876 15.7C226.796 15.58 226.716 15.56 226.636 15.64C226.556 15.7067 226.443 15.7267 226.296 15.7C226.203 15.5933 226.11 15.5467 226.016 15.56C225.923 15.56 225.823 15.56 225.716 15.56C225.57 15.56 225.363 15.5667 225.096 15.58C224.83 15.5933 224.623 15.6133 224.476 15.64C224.423 15.7733 224.39 15.9 224.376 16.02C224.363 16.1267 224.396 16.2267 224.476 16.32C224.503 16.3333 224.523 16.3667 224.536 16.42C224.55 16.4733 224.543 16.5067 224.516 16.52V17.76C224.556 17.8267 224.563 17.88 224.536 17.92C224.403 18.0533 224.39 18.22 224.496 18.42C224.523 18.4733 224.543 18.5333 224.556 18.6C224.57 18.6667 224.576 18.7333 224.576 18.8C224.576 18.9467 224.53 19.0867 224.436 19.22C224.37 19.3133 224.363 19.3867 224.416 19.44C224.496 19.5467 224.536 19.7 224.536 19.9C224.536 20.0467 224.536 20.2867 224.536 20.62C224.536 20.94 224.53 21.26 224.516 21.58C224.516 21.9 224.516 22.1333 224.516 22.28C224.516 22.3733 224.51 22.4733 224.496 22.58C224.496 22.6867 224.483 22.88 224.456 23.16C224.456 23.32 224.503 23.4 224.596 23.4C224.756 23.4 224.99 23.4 225.296 23.4C225.603 23.4 225.896 23.4067 226.176 23.42C226.456 23.42 226.616 23.44 226.656 23.48C226.71 23.52 226.763 23.5133 226.816 23.46C226.883 23.3933 226.943 23.3733 226.996 23.4C227.05 23.4267 227.103 23.4533 227.156 23.48C227.21 23.4933 227.27 23.48 227.336 23.44C227.416 23.3867 227.47 23.3733 227.496 23.4C227.59 23.4667 227.683 23.5 227.776 23.5C227.87 23.5 227.963 23.5 228.056 23.5ZM227.896 20.14C227.763 20.2733 227.596 20.2867 227.396 20.18C227.21 20.0733 227.07 19.96 226.976 19.84C226.896 19.7333 226.856 19.6267 226.856 19.52C226.856 19.4133 226.89 19.3 226.956 19.18C227.036 19.0467 227.123 18.9733 227.216 18.96C227.363 18.9333 227.536 18.9333 227.736 18.96C227.95 18.9733 228.056 19.08 228.056 19.28C228.056 19.4267 228.103 19.5333 228.196 19.6C228.29 19.6667 228.283 19.7533 228.176 19.86L227.896 20.14ZM227.636 19.74L227.716 19.66C227.743 19.6333 227.743 19.6133 227.716 19.6C227.69 19.5867 227.676 19.5533 227.676 19.5C227.676 19.4467 227.65 19.42 227.596 19.42C227.543 19.4067 227.496 19.4067 227.456 19.42C227.39 19.4467 227.356 19.5 227.356 19.58C227.356 19.62 227.37 19.6467 227.396 19.66C227.423 19.6867 227.456 19.72 227.496 19.76C227.55 19.7867 227.596 19.78 227.636 19.74Z" fill="#AFAF95"/>
<defs>
<filter id="filter0_d_28_141" x="77.4166" y="34.304" width="209.475" height="42.176" filterUnits="userSpaceOnUse" color-interpolation-filters="sRGB">
<feFlood flood-opacity="0" result="BackgroundImageFix"/>
<feColorMatrix in="SourceAlpha" type="matrix" values="0 0 0 0 0 0 0 0 0 0 0 0 0 0 0 0 0 0 127 0" result="hardAlpha"/>
<feOffset dy="4"/>
<feGaussianBlur stdDeviation="2"/>
<feComposite in2="hardAlpha" operator="out"/>
<feColorMatrix type="matrix" values="0 0 0 0 0 0 0 0 0 0 0 0 0 0 0 0 0 0 0.25 0"/>
<feBlend mode="normal" in2="BackgroundImageFix" result="effect1_dropShadow_28_141"/>
<feBlend mode="normal" in="SourceGraphic" in2="effect1_dropShadow_28_141" result="shape"/>
</filter>
<linearGradient id="paint0_linear_28_141" x1="340" y1="0" x2="340" y2="430" gradientUnits="userSpaceOnUse">
<stop stop-color="#1C1C1C"/>
<stop offset="1"/>
</linearGradient>
</defs>
</svg>
